<svg width="77.620972" height="233.821213" viewBox="0 0 77.621 233.821" fill="none" xmlns="http://www.w3.org/2000/svg" xmlns:xlink="http://www.w3.org/1999/xlink">
	<desc>
			Created with Pixso.
	</desc>
	<defs/>
	<path id="Vector 187" d="M75.13 2.51C49.51 3.23 54.23 2.25 33.51 22.21C28.78 26.76 21.62 32.31 20 40.4C17.6 52.35 32.25 88.5 41.85 75.19C48.04 66.6 46.85 51.83 37.42 47.92C21.96 41.52 9.52 60.46 4.71 76.82C-0.58 94.83 3.87 114.54 16.34 126.57C22.04 132.07 31.23 129.58 26.19 117.91C15.82 93.9 3.82 123.02 5.45 138.97C8.37 167.69 33.04 205.43 56.13 199.44C63.34 197.57 60.99 193.4 57.96 190.31C54.88 187.18 47.16 175.74 49.23 180.08C52.86 187.68 57.46 190.73 62.6 195.19C69.23 200.94 55.01 213.51 50.89 218C48.73 220.36 45.58 225.63 45 229.47C43.84 237.06 52.18 217.24 53.67 209.79" stroke="#00ADB5" stroke-opacity="0.200000" stroke-width="5.000000" stroke-linejoin="round" stroke-linecap="round"/>
</svg>
