<svg width="400.268921" height="472.654877" viewBox="0 0 400.269 472.655" fill="none" xmlns="http://www.w3.org/2000/svg" xmlns:xlink="http://www.w3.org/1999/xlink">
	<desc>
			Created with Pixso.
	</desc>
	<defs/>
	<mask id="mask_16_227" fill="white">
		<path id="Union" d="M289.88 94.8613C287.438 93.9701 285.111 92.6677 282.989 90.8593C266.965 77.2081 273.836 56.6121 283.533 45.8895C293.23 35.1668 352.553 39.4439 324.568 89.1176C324.45 89.1886 324.33 89.2602 324.208 89.3321C321.079 99.2876 323.718 107.827 326.884 118.072C328.175 122.251 329.554 126.714 330.665 131.672L300.985 129.546C292.827 118.468 289.734 107.302 289.88 94.8613Z" clip-rule="evenodd" fill="" fill-opacity="1.000000" fill-rule="evenodd"/>
	</mask>
	<path id="Union" d="M289.88 94.8613C287.438 93.9701 285.111 92.6677 282.989 90.8593C266.965 77.2081 273.836 56.6121 283.533 45.8895C293.23 35.1668 352.553 39.4439 324.568 89.1176C324.45 89.1886 324.33 89.2602 324.208 89.3321C321.079 99.2876 323.718 107.827 326.884 118.072C328.175 122.251 329.554 126.714 330.665 131.672L300.985 129.546C292.827 118.468 289.734 107.302 289.88 94.8613Z" clip-rule="evenodd" fill="#F5B9AB" fill-opacity="1.000000" fill-rule="evenodd" mask="url(#mask_16_227)"/>
	<path id="Union" d="M290.12 94.2042Q286.401 92.8474 283.442 90.3269Q272.744 81.2121 274.311 67.3548Q275.632 55.6686 284.052 46.3586Q287.668 42.3605 298.007 41.8334Q308.982 41.2739 317.882 45.4871Q328.267 50.403 330.647 60.0665Q333.532 71.7816 323.959 88.7743L324.568 89.1176L324.211 88.5165L323.85 88.7309Q323.739 88.7969 323.659 88.8981Q323.579 88.9993 323.541 89.1224Q321.391 95.9626 322.493 103.692Q323.165 108.407 326.215 118.279L326.215 118.279Q328.877 126.894 329.982 131.825L330.665 131.672L330.715 130.975L301.035 128.848L300.985 129.546L301.548 129.131Q290.356 113.933 290.58 94.8695Q290.581 94.7608 290.549 94.6569Q290.517 94.553 290.456 94.4636Q290.394 94.3743 290.308 94.3078Q290.222 94.2414 290.12 94.2042ZM289.641 95.5183L289.88 94.8613L289.181 94.8531Q288.952 114.385 300.422 129.96Q300.513 130.084 300.647 130.158Q300.782 130.232 300.935 130.243L330.615 132.37Q330.718 132.377 330.818 132.355Q330.885 132.34 330.948 132.312Q331.011 132.284 331.067 132.244Q331.124 132.205 331.171 132.155Q331.219 132.105 331.256 132.047Q331.293 131.989 331.317 131.924Q331.342 131.86 331.354 131.792Q331.366 131.724 331.364 131.655Q331.362 131.587 331.347 131.519Q330.23 126.534 327.552 117.866L327.552 117.866Q324.534 108.1 323.878 103.495Q322.821 96.0793 324.875 89.5418L324.208 89.3321L324.565 89.9332L324.926 89.7187Q325.086 89.6234 325.178 89.4609Q335.023 71.9853 332.005 59.732Q329.467 49.423 318.481 44.2227Q309.262 39.8589 297.936 40.4363Q287.019 40.9929 283.015 45.4203Q274.293 55.0641 272.921 67.1976Q271.27 81.7944 282.535 91.3917Q285.685 94.0753 289.641 95.5183Z" fill="#000000" fill-opacity="1.000000" fill-rule="nonzero"/>
	<path id="Vector 66" d="M329.89 59.12C334.53 65.58 329.53 81.54 325.84 85.53C356.42 68.56 337.06 30.27 327.62 37.25C326.09 23.1 309.84 18.1 298.77 30.07C271.01 7.66 269.55 45.86 279.35 51.67C289.15 57.48 301.04 51.94 307.2 54.94C313.37 57.93 317.18 76.08 319.18 66.01C321.18 55.94 324.08 51.04 329.89 59.12Z" fill="#00ADB5" fill-opacity="1.000000" fill-rule="nonzero"/>
	<path id="Vector 66" d="M329.89 59.12C324.08 51.04 321.18 55.94 319.18 66.01C317.18 76.08 313.37 57.93 307.2 54.94C301.04 51.94 289.15 57.48 279.35 51.67C269.55 45.86 271.01 7.66 298.77 30.07C309.84 18.1 326.09 23.1 327.62 37.25C337.06 30.27 356.42 68.56 325.84 85.53C329.53 81.54 334.53 65.58 329.89 59.12Z" stroke="#000000" stroke-opacity="1.000000" stroke-width="1.398869"/>
	<path id="Vector 83" d="M357.34 340.98L314.29 337.86L324.65 221.98C324.65 221.98 274.7 103.63 317.58 103.63C378.16 103.63 398.42 196.96 397.66 221.98C396.9 247.01 357.34 340.98 357.34 340.98Z" fill="#EEEEEE" fill-opacity="1.000000" fill-rule="nonzero"/>
	<path id="Vector 83" d="M357.34 340.98C357.34 340.98 396.9 247.01 397.66 221.98C398.42 196.96 378.16 103.63 317.58 103.63C274.7 103.63 324.65 221.98 324.65 221.98L314.29 337.86L357.34 340.98Z" stroke="#000000" stroke-opacity="1.000000" stroke-width="1.398869"/>
	<path id="Vector 84" d="M313.96 342.87L314.56 337.64L357.92 339.38L356.96 347.79C355.41 361.38 341.8 370.15 328.78 365.93C318.98 362.75 312.78 353.11 313.96 342.87Z" fill="#F5B9AB" fill-opacity="1.000000" fill-rule="nonzero"/>
	<path id="Vector 84" d="M313.96 342.87C312.78 353.11 318.98 362.75 328.78 365.93C341.8 370.15 355.41 361.38 356.96 347.79L357.92 339.38L314.56 337.64L313.96 342.87Z" stroke="#000000" stroke-opacity="1.000000" stroke-width="1.398869" stroke-linejoin="round"/>
	<path id="Vector 53" d="M251.48 257.6C223.47 230.45 258.27 140.51 263.95 129.81C272.21 114.56 297.01 88.02 330.12 103.91C380.17 127.93 357.3 246.78 348.3 287.97L251.48 257.6Z" fill="#EEEEEE" fill-opacity="1.000000" fill-rule="nonzero"/>
	<path id="Vector 53" d="M251.48 257.6L348.3 287.97C357.3 246.78 380.17 127.93 330.12 103.91C297.01 88.02 272.21 114.56 263.95 129.81C258.27 140.51 223.47 230.45 251.48 257.6Z" stroke="#000000" stroke-opacity="1.000000" stroke-width="1.398869"/>
	<path id="Rectangle 59" d="M33.42 351.85L28.91 311.06C28.91 311.06 133.67 277.11 220.02 264.37L338.58 274.61C356.39 316.69 347.61 394.03 215.52 358.48L33.42 351.85Z" fill="#00ADB5" fill-opacity="1.000000" fill-rule="nonzero"/>
	<path id="Rectangle 59" d="M33.42 351.85L215.52 358.48C347.61 394.03 356.39 316.69 338.58 274.61L220.02 264.37C133.67 277.11 28.91 311.06 28.91 311.06L33.42 351.85Z" stroke="#000000" stroke-opacity="1.000000" stroke-width="1.398869"/>
	<mask id="mask_16_236" fill="white">
		<path id="Union" d="M138.036 194.21L139.705 191.601L147.817 194.21C154.3 194.218 160.17 196.281 164.927 199.714L329.055 252.51C354.437 260.675 365.854 290.144 352.596 313.278L327.488 357.092C314.455 379.835 283.983 385.179 263.989 368.228L160.378 280.389L141.763 338.284L102.707 336.377L84.886 228.371C81.9337 210.479 95.7377 194.21 113.872 194.21L138.036 194.21Z" clip-rule="evenodd" fill="" fill-opacity="1.000000" fill-rule="evenodd"/>
	</mask>
	<path id="Union" d="M138.036 194.21L139.705 191.601L147.817 194.21C154.3 194.218 160.17 196.281 164.927 199.714L329.055 252.51C354.437 260.675 365.854 290.144 352.596 313.278L327.488 357.092C314.455 379.835 283.983 385.179 263.989 368.228L160.378 280.389L141.763 338.284L102.707 336.377L84.886 228.371C81.9337 210.479 95.7377 194.21 113.872 194.21L138.036 194.21Z" clip-rule="evenodd" fill="#00ADB5" fill-opacity="1.000000" fill-rule="evenodd" mask="url(#mask_16_236)"/>
	<path id="Union" d="M137.447 193.833L139.407 190.77L148.031 193.544L147.817 194.21L147.818 193.511Q157.543 193.522 165.337 199.147L164.927 199.714L165.142 199.048L329.269 251.844Q348.623 258.07 355.968 277.028Q363.312 295.987 353.203 313.626L328.095 357.44Q318.157 374.781 298.47 378.234Q278.782 381.686 263.536 368.761L159.926 280.922L160.378 280.389L161.044 280.603L142.265 339.009L102.108 337.048L84.1959 228.485Q81.929 214.746 90.9382 204.128Q99.9476 193.511 113.872 193.511L138.036 193.511L138.036 194.21L137.447 193.833ZM138.419 194.91L113.872 194.91Q100.595 194.91 92.0049 205.034Q83.4147 215.157 85.576 228.257L103.397 336.263L102.707 336.377L102.741 335.678L141.797 337.586L141.763 338.284L141.097 338.07L160.033 279.179L264.441 367.694Q279.187 380.196 298.228 376.856Q317.269 373.516 326.881 356.744L351.989 312.931Q361.766 295.87 354.663 277.533Q347.56 259.197 328.84 253.176L164.608 200.346L164.518 200.281Q157.09 194.92 147.816 194.91L147.707 194.91L139.491 192.267L139.705 191.601L140.295 191.978L138.625 194.587L138.419 194.91Z" fill="#000000" fill-opacity="1.000000" fill-rule="nonzero"/>
	<path id="Vector 61" d="M102.25 335.93L142.19 338.29L145.29 371.82C145.29 371.82 110.25 370.8 89 364.16L103.28 357.14L102.25 335.93Z" fill="#EEEEEE" fill-opacity="1.000000" fill-rule="nonzero"/>
	<path id="Vector 61" d="M102.25 335.93L103.28 357.14L89 364.16C110.25 370.8 145.29 371.82 145.29 371.82L142.19 338.29L102.25 335.93Z" stroke="#000000" stroke-opacity="1.000000" stroke-width="1.398869" stroke-linejoin="round"/>
	<rect id="Rectangle 53" rx="2.008776" width="97.773033" height="18.332439" transform="matrix(0.258819 0.965926 0.965926 -0.258819 88.797 91.5376)" fill="#EEEEEE" fill-opacity="1.000000"/>
	<rect id="Rectangle 53" rx="2.008776" width="97.773033" height="18.332439" transform="matrix(0.258819 0.965926 0.965926 -0.258819 88.797 91.5376)" stroke="#000000" stroke-opacity="1.000000" stroke-width="1.398869"/>
	<rect id="Rectangle 54" rx="2.008776" width="97.773033" height="18.332443" transform="matrix(-1 0 0 1 207.992 176.418)" fill="#00ADB5" fill-opacity="1.000000"/>
	<rect id="Rectangle 54" rx="2.008776" width="97.773033" height="18.332443" transform="matrix(-1 0 0 1 207.992 176.418)" stroke="#000000" stroke-opacity="1.000000" stroke-width="1.398869"/>
	<path id="Vector 82" d="M29.22 311.09L34.16 351.87L4.34 360.1C4.34 360.1 -1.27 324.96 1.45 302.52L11.3 315.45L29.22 311.09Z" fill="#EEEEEE" fill-opacity="1.000000" fill-rule="nonzero"/>
	<path id="Vector 82" d="M29.22 311.09L11.3 315.45L1.45 302.52C-1.27 324.96 4.34 360.1 4.34 360.1L34.16 351.87L29.22 311.09Z" stroke="#000000" stroke-opacity="1.000000" stroke-width="1.398869" stroke-linejoin="round"/>
	<path id="Vector 83" d="M199.63 168.33L177.26 205.61C177.26 205.61 268.67 292.66 304.38 268.98C340.09 245.3 380.24 110.95 325.74 104.32C294.67 100.54 265.08 162.58 268.22 205.68L199.63 168.33Z" fill="#EEEEEE" fill-opacity="1.000000" fill-rule="evenodd"/>
	<path id="Vector 54" d="M291.54 147.2L268.22 205.68L199.63 168.33L177.26 205.61C177.26 205.61 268.67 292.66 304.38 268.98C321.2 257.82 339 222.12 347.44 186.77" stroke="#000000" stroke-opacity="1.000000" stroke-width="1.398869"/>
	<path id="Vector 59" d="M195.56 165.51L199.84 168.57L177.3 205.64L170.41 200.73C159.27 192.79 158.2 176.63 168.21 167.29C175.74 160.26 187.18 159.51 195.56 165.51Z" fill="#F5B9AB" fill-opacity="1.000000" fill-rule="nonzero"/>
	<path id="Vector 59" d="M195.56 165.51C187.18 159.51 175.74 160.26 168.21 167.29C158.2 176.63 159.27 192.79 170.41 200.73L177.3 205.64L199.84 168.57L195.56 165.51Z" stroke="#000000" stroke-opacity="1.000000" stroke-width="1.398869" stroke-linejoin="round"/>
</svg>
