<svg width="514.000000" height="514.000000" viewBox="0 0 514 514" fill="none" xmlns="http://www.w3.org/2000/svg" xmlns:xlink="http://www.w3.org/1999/xlink">
	<desc>
			Created with Pixso.
	</desc>
	<defs/>
	<circle id="Ellipse 2" cx="257.000000" cy="257.000000" r="256.500000" stroke="#000000" stroke-opacity="0" stroke-width="1.000000"/>
	<path id="Vector 8" d="M149.68 414.09C148.37 414.28 146.83 414.38 146.52 415.94C146.28 417.15 146.37 418.39 147.09 419.44C148.33 421.23 150.17 422.27 152.38 421.91C154.36 421.58 157.08 419.78 157.08 417.55C157.08 416.3 156.18 415.03 155.43 414.09C154.63 413.09 153.93 412.03 152.92 411.2C151.56 410.09 150.46 409.98 149.24 411.29C148.57 412.01 147.93 412.99 147.64 413.93C147.49 414.39 147.6 414.76 147.6 415.23C147.6 415.84 147.49 414.93 147.6 414.63" stroke="#00ADB5" stroke-opacity="0.500000" stroke-width="1.000000" stroke-linejoin="round" stroke-linecap="round"/>
	<path id="Vector 9" d="M156.46 417.63C157.58 418.61 158.52 419.51 160.49 419.56C161.87 419.59 163.25 419.25 164.54 418.88C165.47 418.61 168.43 417.21 166.03 417.09" stroke="#00ADB5" stroke-opacity="0.500000" stroke-width="1.000000" stroke-linejoin="round" stroke-linecap="round"/>
	<path id="Vector 10" d="M167.95 409C166.48 410.62 164.45 413.8 165.21 416.24C165.48 417.1 165.87 417.67 166.37 418.41C167.39 419.88 168.96 419.42 170.38 419.04C171.42 418.76 172.64 417.88 173.04 416.88C173.58 415.5 172.45 413.34 171.5 412.39C170.44 411.33 169.6 410.04 168.41 409.11C168.1 408.86 167.86 408.59 167.45 408.69C166.99 408.79 166.8 409.23 167.41 409.23" stroke="#00ADB5" stroke-opacity="0.500000" stroke-width="1.000000" stroke-linejoin="round" stroke-linecap="round"/>
	<path id="Vector 8" d="M271.86 186.58C270.55 186.77 269.01 186.87 268.7 188.43C268.46 189.64 268.55 190.88 269.28 191.93C270.51 193.72 272.35 194.77 274.56 194.4C276.54 194.07 279.26 192.27 279.26 190.05C279.26 188.79 278.36 187.53 277.61 186.59C276.81 185.58 276.11 184.52 275.1 183.7C273.74 182.58 272.64 182.48 271.42 183.79C270.75 184.5 270.11 185.48 269.82 186.42C269.67 186.88 269.78 187.25 269.78 187.72C269.78 188.34 269.67 187.42 269.78 187.12" stroke="#00ADB5" stroke-opacity="0.500000" stroke-width="1.000000" stroke-linejoin="round" stroke-linecap="round"/>
	<path id="Vector 9" d="M278.65 190.12C279.76 191.11 280.7 192 282.67 192.05C284.05 192.08 285.43 191.74 286.72 191.37C287.65 191.1 290.61 189.7 288.21 189.58" stroke="#00ADB5" stroke-opacity="0.500000" stroke-width="1.000000" stroke-linejoin="round" stroke-linecap="round"/>
	<path id="Vector 10" d="M290.13 181.49C288.66 183.11 286.63 186.29 287.39 188.73C287.66 189.59 288.05 190.17 288.55 190.9C289.57 192.37 291.14 191.91 292.56 191.53C293.6 191.25 294.82 190.37 295.22 189.37C295.76 187.99 294.63 185.83 293.68 184.88C292.62 183.82 291.78 182.53 290.59 181.6C290.28 181.35 290.04 181.09 289.63 181.18C289.17 181.28 288.98 181.72 289.59 181.72" stroke="#00ADB5" stroke-opacity="0.500000" stroke-width="1.000000" stroke-linejoin="round" stroke-linecap="round"/>
	<path id="Vector 75" d="M159.12 139.39C166.67 135.8 172.77 129.85 178.9 124.24C183.72 119.84 188.78 115.49 194.1 111.68C195.15 110.93 196.63 109.42 198.05 110.07C199.46 110.7 200.27 112.44 201.38 113.47C204.12 116 206.58 119.09 208.83 122.07C211.31 125.34 207.59 127.16 205.3 129.3C202.69 131.74 200.2 134.25 197.35 136.4C194.64 138.44 192.46 141.26 189.98 143.57C186.2 147.1 182.67 150.85 178.9 154.38C176.66 156.48 174.08 158.19 171.92 160.37C171.17 161.13 170.47 162.14 169.59 162.77C168.89 163.28 167.92 161.32 167.67 160.95C165.69 158.02 162.62 156.02 160.68 152.95C159.46 151.03 158.64 148.65 157.18 146.89C156.48 146.05 154.74 144.16 155.5 142.93C156.28 141.68 158.5 141.08 159.71 140.18C160.65 139.48 161.79 138.62 162.86 138.13C163.64 137.78 164.4 137.15 165.1 136.67C166.93 135.4 164.99 135.94 163.75 136.41" stroke="#00ADB5" stroke-opacity="0.500000" stroke-width="1.000000" stroke-linejoin="round" stroke-linecap="round"/>
	<path id="Vector 76" d="M160.27 145.14C164.87 147.99 168.99 152.1 172.57 156.16C172.67 156.27 173.54 156.87 173.41 157.1C173.15 157.53 170.17 155.57 169.88 155.37" stroke="#00ADB5" stroke-opacity="0.500000" stroke-width="1.000000" stroke-linejoin="round" stroke-linecap="round"/>
	<path id="Vector 77" d="M164.83 141.03C168.55 142.1 170.77 144.13 173.78 146.3C175.12 147.27 176.48 148.14 177.69 149.28C178.25 149.81 178.65 150.51 179.17 151.09C179.89 151.88 176.97 150.17 176.63 149.98" stroke="#00ADB5" stroke-opacity="0.500000" stroke-width="1.000000" stroke-linejoin="round" stroke-linecap="round"/>
	<path id="Vector 78" d="M170.24 137.84C172.85 140.2 175.47 142.52 178.15 144.77C179.18 145.63 180.34 146.42 181.22 147.43C182.78 149.22 180.73 146.89 180.04 146.24" stroke="#00ADB5" stroke-opacity="0.500000" stroke-width="1.000000" stroke-linejoin="round" stroke-linecap="round"/>
	<path id="Vector 79" d="M173.89 135.6C175.83 136.78 177.84 137.92 179.48 139.5C180.15 140.15 180.71 140.92 181.43 141.52C182.31 142.26 183.09 143.13 183.98 143.85C185.25 144.88 185.44 145.17 183.93 143.89" stroke="#00ADB5" stroke-opacity="0.500000" stroke-width="1.000000" stroke-linejoin="round" stroke-linecap="round"/>
	<path id="Vector 80" d="M178.6 132.15C180.73 133.82 182.71 135.51 184.49 137.55C185.28 138.45 185.92 139.49 186.92 140.19C187.84 140.82 188.48 141 187.41 139.97" stroke="#00ADB5" stroke-opacity="0.500000" stroke-width="1.000000" stroke-linejoin="round" stroke-linecap="round"/>
	<path id="Vector 81" d="M183.13 128.63C185.01 130.04 186.86 131.33 188.36 133.15C189.05 133.98 189.59 134.94 190.36 135.7C191.92 137.26 190.84 136.48 189.72 135.42" stroke="#00ADB5" stroke-opacity="0.500000" stroke-width="1.000000" stroke-linejoin="round" stroke-linecap="round"/>
	<path id="Vector 82" d="M187.31 124.98C189.95 127.5 192.16 130.46 194.8 132.95C196.58 134.63 194.03 131.94 193.61 131.46" stroke="#00ADB5" stroke-opacity="0.500000" stroke-width="1.000000" stroke-linejoin="round" stroke-linecap="round"/>
	<path id="Vector 83" d="M192.42 122.08C194.64 121.17 196.94 120.09 198.13 117.88C198.46 117.27 198.88 116.74 199.02 116.05C199.2 115.1 199.17 115.51 198.47 116.12" stroke="#00ADB5" stroke-opacity="0.500000" stroke-width="1.000000" stroke-linejoin="round" stroke-linecap="round"/>
	<path id="Vector 84" d="M195.99 125.13C197.75 123.5 199.72 121.71 201.01 119.64C201.65 118.61 202.87 117.34 201.16 118.84" stroke="#00ADB5" stroke-opacity="0.500000" stroke-width="1.000000" stroke-linejoin="round" stroke-linecap="round"/>
	<path id="Vector 85" d="M201.63 128.55C203.23 126.81 204.66 125.19 206.14 123.37C206.61 122.78 208.07 122.01 206.32 122.48" stroke="#00ADB5" stroke-opacity="0.500000" stroke-width="1.000000" stroke-linejoin="round" stroke-linecap="round"/>
	<path id="Vector 86" d="M200.35 127.67C202.03 126.23 203.93 124.56 205.26 122.74C205.62 122.26 205.89 121.72 206.21 121.21C206.76 120.37 206.79 120.66 205.97 120.74" stroke="#00ADB5" stroke-opacity="0.500000" stroke-width="1.000000" stroke-linejoin="round" stroke-linecap="round"/>
	<path id="Vector 87" d="M164.8 148.05C173.16 144.65 175.23 135.44 182.04 130.22C182.87 129.59 183.54 128.88 184.51 128.45C185.15 128.15 185.95 128.01 186.54 127.64C186.9 127.41 189.88 125.13 187.81 126.07" stroke="#00ADB5" stroke-opacity="0.500000" stroke-width="1.000000" stroke-linejoin="round" stroke-linecap="round"/>
	<path id="Vector 88" d="M160.91 145.58C161.85 144.44 162.68 143.47 163.87 142.64C164.07 142.5 164.37 142.48 164.53 142.3C164.85 141.94 165.33 141.42 165.45 140.96C165.93 139.14 168.29 139.48 169.55 138.56C170.74 137.7 171.88 136.82 173.1 135.96C174.44 135.02 175.06 134.19 176.13 132.98C177.12 131.87 178.08 130.74 179.12 129.69C179.98 128.83 181.32 128.05 181.86 126.95C182.48 125.7 184.05 124.28 185.46 124.51C185.95 124.59 189.51 126.66 187.18 125.33" stroke="#00ADB5" stroke-opacity="0.500000" stroke-width="1.000000" stroke-linejoin="round" stroke-linecap="round"/>
	<path id="Vector 89" d="M168.48 150.03C174.76 146.72 178.24 139.49 182.49 134.03C184.05 132.02 186.28 130.69 187.92 128.71C188.62 127.87 190.16 126.97 188.37 126.98" stroke="#00ADB5" stroke-opacity="0.500000" stroke-width="1.000000" stroke-linejoin="round" stroke-linecap="round"/>
	<path id="Vector 90" d="M170.72 152.08C176.41 148.58 180.06 142.06 184.2 136.91C186.08 134.56 187.9 132.16 189.81 129.83C190.68 128.77 192.19 128.11 190.25 129.2" stroke="#00ADB5" stroke-opacity="0.500000" stroke-width="1.000000" stroke-linejoin="round" stroke-linecap="round"/>
	<path id="Vector 91" d="M172.96 155.73C176.51 152.26 179.38 148.53 182.29 144.52C184.05 142.08 185.58 139.34 187.66 137.15C188.85 135.89 189.76 134.42 190.85 133.08C191.28 132.55 191.58 131.92 192.03 131.39C193.04 130.19 192.33 131.27 191.63 131.92" stroke="#00ADB5" stroke-opacity="0.500000" stroke-width="1.000000" stroke-linejoin="round" stroke-linecap="round"/>
	<path id="Vector 92" d="M173.8 157.25C175.56 155.51 178.15 153.85 179.33 151.6C179.76 150.78 180.82 148.82 181.56 148.32C182.55 147.66 183.01 146.25 183.73 145.37C184.47 144.45 185.2 143.56 186.01 142.68C186.77 141.86 187.01 140.42 187.95 139.72C188.99 138.93 189.5 137.72 190.33 136.78C191.06 135.97 192.43 135.12 193.32 134.5C193.82 134.16 194.17 133.69 194.73 133.44C195.87 132.92 195.13 133.18 194.08 133.14" stroke="#00ADB5" stroke-opacity="0.500000" stroke-width="1.000000" stroke-linejoin="round" stroke-linecap="round"/>
	<path id="Vector 93" d="M192.27 122.73C193.74 123.11 195.54 123.38 196.87 124.18C197.73 124.69 198.48 125.21 196.91 124.27" stroke="#00ADB5" stroke-opacity="0.500000" stroke-width="1.000000" stroke-linejoin="round" stroke-linecap="round"/>
	<path id="Vector 94" d="M193.79 120.29C195.88 120.83 197.35 121.44 199.05 122.55C200.17 123.28 199.99 123.08 198.83 122.38" stroke="#00ADB5" stroke-opacity="0.500000" stroke-width="1.000000" stroke-linejoin="round" stroke-linecap="round"/>
	<path id="Vector 95" d="M196.32 117.83C198.11 118.83 199.85 119.98 201.7 120.85C202.79 121.37 202.22 121.33 201.38 120.93" stroke="#00ADB5" stroke-opacity="0.500000" stroke-width="1.000000" stroke-linejoin="round" stroke-linecap="round"/>
	<path id="Vector 96" d="M197.76 115.86C199.65 116.71 201.38 117.57 203.12 118.65C203.91 119.14 203.19 119.17 202.59 118.77" stroke="#00ADB5" stroke-opacity="0.500000" stroke-width="1.000000" stroke-linejoin="round" stroke-linecap="round"/>
	<path id="Vector 97" d="M193.2 121.87C194.62 120.18 196.05 118.58 197.34 116.84C197.71 116.35 199.95 113.61 198.98 115.01" stroke="#00ADB5" stroke-opacity="0.500000" stroke-width="1.000000" stroke-linejoin="round" stroke-linecap="round"/>
	<path id="Vector 98" d="M194.69 124.84C196.54 123.2 199.21 121.02 199.81 118.58C199.99 117.86 200.37 117.14 200.93 116.64C201.49 116.14 202.09 115.91 201.24 116.76" stroke="#00ADB5" stroke-opacity="0.500000" stroke-width="1.000000" stroke-linejoin="round" stroke-linecap="round"/>
	<path id="Vector 99" d="M193.21 124.79C195.18 122.66 196.87 121.23 197.98 118.61C198.27 117.93 198.61 117.37 199.08 116.83C199.59 116.26 200.31 115.73 199.34 116.75" stroke="#00ADB5" stroke-opacity="0.500000" stroke-width="1.000000" stroke-linejoin="round" stroke-linecap="round"/>
	<path id="Vector 100" d="M200.54 125.83C201.45 126.41 202.36 126.94 203.31 127.42C203.7 127.62 203.22 127.24 203.05 127.18" stroke="#00ADB5" stroke-opacity="0.500000" stroke-width="1.000000" stroke-linejoin="round" stroke-linecap="round"/>
	<path id="Vector 101" d="M202.31 122.99C202.38 123.04 205.95 126.1 205.32 125.42" stroke="#00ADB5" stroke-opacity="0.500000" stroke-width="1.000000" stroke-linejoin="round" stroke-linecap="round"/>
	<path id="Vector 102" d="M204.44 121.88C205.23 122.63 207.64 124.85 206.79 124.16" stroke="#00ADB5" stroke-opacity="0.500000" stroke-width="1.000000" stroke-linejoin="round" stroke-linecap="round"/>
	<path id="Vector 103" d="M199.49 127.04C200.79 125.83 203.66 123.42 204.36 121.55C204.64 120.81 205.9 119.86 204.71 120.87" stroke="#00ADB5" stroke-opacity="0.500000" stroke-width="1.000000" stroke-linejoin="round" stroke-linecap="round"/>
	<path id="Vector 104" d="M199.65 127.41C199.78 127.51 202.27 130.2 202.81 128.89C203.08 128.23 203.43 127.36 204.1 126.99C205.27 126.35 205.49 124.32 206.69 123.77C208.05 123.16 207.92 122.12 206.65 121.75C206.15 121.61 206.55 120.63 206.03 120.71C205.56 120.78 205.31 120.6 204.78 120.7" stroke="#00ADB5" stroke-opacity="0.500000" stroke-width="1.000000" stroke-linejoin="round" stroke-linecap="round"/>
	<path id="Vector 105" d="M192.11 122.37C192.97 124 193.13 124.6 194.51 125.28C194.88 125.47 195.37 125.21 195.65 125.35C196.21 125.64 197.32 125.64 197.74 125.13C198.58 124.09 198.89 123.42 200.18 122.79C200.99 122.39 201.65 121.45 202.02 120.67C202.44 119.81 203.18 119.17 203.62 118.31C203.81 117.94 202.3 117 202.29 116.36C202.29 116.18 200.51 116.18 200.21 116.03C199.85 115.85 199.68 115.59 199.51 115.21C199.26 114.65 198.81 115.34 198.14 115.4" stroke="#00ADB5" stroke-opacity="0.500000" stroke-width="1.000000" stroke-linejoin="round" stroke-linecap="round"/>
	<path id="Vector 106" d="M162.43 143.14C164.45 143.91 166.22 144.9 168.04 146C169.62 146.96 171.41 147.46 172.98 148.39C174.1 149.04 175.27 150.55 176.09 151.53C176.37 151.86 176.57 152.17 176.77 152.54C177.22 153.39 176.75 151.33 176.7 151.11" stroke="#00ADB5" stroke-opacity="0.500000" stroke-width="1.000000" stroke-linejoin="round" stroke-linecap="round"/>
	<path id="Vector 107" d="M181.98 127.7C182.54 128.29 184.81 131.54 184.36 129.09" stroke="#00ADB5" stroke-opacity="0.500000" stroke-width="1.000000" stroke-linejoin="round" stroke-linecap="round"/>
	<path id="Vector 33" d="M186.66 353.57C186.9 354.81 187.51 355.61 187.98 356.74C188.31 357.51 188.91 358.1 189.25 358.85C189.61 359.67 190.16 360.62 190.66 361.35C191.1 361.97 191.38 362.56 191.93 363.1C192.9 364.07 193.63 365.23 194.61 366.18C196.02 367.57 198.42 369.38 200.48 369.27C201.14 369.23 201.87 369.44 202.52 369.34C203.08 369.25 203.76 369.23 204.31 369.32C205.23 369.48 206.23 369.32 207.1 369.51C207.58 369.61 208.09 369.46 208.57 369.55C209.2 369.67 209.92 369.7 210.56 369.7C212.63 369.7 214.7 369.68 216.77 369.42C217.89 369.28 219 369.65 220.11 369.45C221.15 369.27 222.54 369.46 223.52 369.03C224.72 368.5 225.92 367.68 226.85 366.75C227.32 366.28 227.67 365.72 227.99 365.15C228.4 364.39 228.63 363.57 229.05 362.82C230.5 360.18 231.33 357.25 232.51 354.5C232.78 353.85 233.24 353.33 233.57 352.73C233.66 352.58 233.7 352.39 233.83 352.24C234.35 351.7 233.36 351.64 232.91 351.44" stroke="#00ADB5" stroke-opacity="0.500000" stroke-width="1.000000" stroke-linejoin="round" stroke-linecap="round"/>
	<path id="Vector 34" d="M186.43 353.68C187.46 352.34 188.33 351.35 189.82 350.59C191.08 349.95 192.38 349.19 193.51 348.36C195.25 347.08 197.64 346.51 199.76 346.12C202.06 345.71 204.33 345.22 206.68 345.22C207.4 345.22 208.12 345.43 208.85 345.45C209.71 345.46 210.59 345.49 211.45 345.56C212.78 345.67 214.14 345.65 215.47 345.68C217.32 345.72 219.1 346.68 220.96 346.83C222.06 346.91 223.34 347.08 224.42 347.38C224.82 347.49 225.28 347.57 225.65 347.75C226.12 347.98 226.45 348.36 226.88 348.63C228.26 349.49 229.81 349.89 231.3 350.55C231.76 350.75 232.55 351.09 233.05 351.09C233.75 351.09 233.72 352.38 233.72 351.09" stroke="#00ADB5" stroke-opacity="0.500000" stroke-width="1.000000" stroke-linejoin="round" stroke-linecap="round"/>
	<path id="Vector 35" d="M233.6 351.9C232.75 353.04 232.14 353.48 230.93 354.15C229.97 354.67 228.92 355.04 227.85 355.24C226.86 355.42 225.77 355.56 224.76 355.64C223.92 355.71 223.07 355.61 222.21 355.71C220.27 355.93 218.31 356.43 216.44 356.98C213.77 357.76 211.19 357.84 208.44 357.99C205.43 358.15 202.41 357.92 199.46 357.31C198.46 357.11 197.41 357.29 196.4 357.25C195.28 357.21 194.19 356.9 193.14 356.54C192.7 356.38 192.29 356.15 191.83 356.04C191.29 355.92 190.73 355.97 190.2 355.84C189.45 355.66 188.57 355.33 187.94 354.89C187.66 354.7 187.25 354.54 187.03 354.26C186.97 354.17 186.89 353.98 186.89 353.88C186.89 353.65 186.69 353.71 187 353.91" stroke="#00ADB5" stroke-opacity="0.500000" stroke-width="1.000000" stroke-linejoin="round" stroke-linecap="round"/>
	<path id="Vector 36" d="M208.83 363.59C209.53 363.51 210.46 363.53 210.17 362.62C210.08 362.33 209.84 362.3 209.59 362.22C208.85 361.97 207.53 362.45 207.25 363.23C206.75 364.61 207.69 366.11 209.18 365.63C209.59 365.5 210.3 365.22 210.56 364.85C210.87 364.41 210.41 364.54 210.1 364.11" stroke="#00ADB5" stroke-opacity="0.500000" stroke-width="1.000000" stroke-linejoin="round" stroke-linecap="round"/>
	<path id="Vector 37" d="M206.7 362.09C207.82 361.64 208.39 361.46 209.52 361.46C209.98 361.46 210.2 361.43 210.61 361.69C211.27 362.12 211.5 362.95 211.43 363.67C211.37 364.29 211.17 365.13 210.95 365.71C210.79 366.14 210.39 366.22 209.99 366.3C209.62 366.37 208.81 366.16 208.52 366.33C208.21 366.5 207.26 366.56 207.02 366.24C206.8 365.94 206.56 365.82 206.4 365.46C206.25 365.12 206.18 364.79 206.06 364.45C205.89 363.99 205.58 362.72 206.21 362.44C206.58 362.27 206.74 362.18 207.16 362.18C207.28 362.18 207.39 362.27 207.51 362.27C207.69 362.27 207.17 362.15 206.99 362.15" stroke="#00ADB5" stroke-opacity="0.500000" stroke-width="1.000000" stroke-linejoin="round" stroke-linecap="round"/>
	<path id="Vector 38" d="M208.72 357.48C209.53 356.43 210.27 355.35 211.11 354.33C211.56 353.78 212.12 353.31 212.61 352.78C214 351.28 215.42 349.63 216.48 347.88C217.53 346.15 218.95 344.26 220.5 342.96C221.32 342.28 222.05 341.52 222.77 340.73C223.46 339.96 223.78 338.88 224.43 338.07C224.94 337.44 228.26 333.17 228.83 335.77C229.06 336.79 228.06 337.5 227.44 338.13C226.73 338.84 226.01 339.74 225.41 340.55C224.83 341.33 224.12 342.01 223.55 342.8C222.78 343.86 221.38 344.63 220.81 345.84C220.35 346.83 219.58 347.64 219 348.56C218.2 349.84 217.26 350.91 216.32 352.08C215.57 353.01 214.4 353.78 213.87 354.84C213.43 355.72 212.65 356.09 211.93 356.67C211.62 356.91 211.24 357.05 210.96 357.4C210.87 357.51 210.71 357.65 210.62 357.52C210.57 357.44 210.39 357.61 210.42 357.69C210.54 357.98 210.24 357 210.22 356.91" stroke="#00ADB5" stroke-opacity="0.500000" stroke-width="1.000000" stroke-linejoin="round" stroke-linecap="round"/>
	<path id="Vector 39" d="M208.26 357.77C208.48 357.88 209.87 358.94 209.87 358.09C209.87 357.83 210.2 357.4 210.32 357.14C210.41 356.94 209.61 357.13 209.49 357.28C209.34 357.48 209.04 357.64 209.52 357.66C209.9 357.67 210.19 357.51 210.47 357.29C210.56 357.22 211.66 357.4 210.68 357.37C210.16 357.35 209.65 357.37 209.15 357.37C208.72 357.37 209.59 357.25 209.72 357.25C209.82 357.25 208.99 357.75 208.85 357.59C208.81 357.55 208.75 357.44 208.89 357.37" stroke="#00ADB5" stroke-opacity="0.500000" stroke-width="1.000000" stroke-linejoin="round" stroke-linecap="round"/>
	<path id="Vector 40" d="M189.94 353.51C190 353.54 192.06 354.62 192.07 354.49C192.08 354.33 191.97 354.19 192.05 354.03C192.39 353.33 192.84 353.67 193.44 353.94C193.91 354.15 193.2 351.82 194.61 352.8C195.34 353.31 195.53 353.23 195.41 352.37C195.32 351.73 195.55 351.73 196.1 351.79C196.48 351.84 196.75 351.92 196.97 351.56C197.23 351.13 197.52 350.88 198.06 351.07C198.5 351.22 198.9 351.66 199.2 351.1C199.33 350.86 199.22 350.12 199.65 350.26C199.91 350.35 200.26 350.7 200.56 350.59C200.79 350.51 200.97 349.79 201.23 349.91C201.5 350.02 201.78 350.54 202.12 350.42C202.28 350.36 202.59 349.82 202.27 349.88" stroke="#00ADB5" stroke-opacity="0.500000" stroke-width="1.000000" stroke-linejoin="round" stroke-linecap="round"/>
	<path id="Vector 41" d="M198.06 352.47C198.78 353.05 201.45 356.16 202.23 353.84C202.38 353.42 202.4 352.6 202.79 353.28C203.12 353.84 203.6 354.23 204.14 353.7C204.49 353.35 204.64 352.75 205.15 352.57C205.61 352.4 205.95 353.27 206.33 352.76C206.64 352.35 206.49 351.65 206.04 351.4C205.89 351.32 205.85 351.6 205.78 351.67" stroke="#00ADB5" stroke-opacity="0.500000" stroke-width="1.000000" stroke-linejoin="round" stroke-linecap="round"/>
	<path id="Vector 42" d="M204.22 348.9C205.34 348.71 206.74 348.32 207.58 349.32C207.98 349.78 207.94 350.37 207.68 350.89C207.49 351.27 206.98 351.47 206.66 351.09C206.39 350.78 206.94 350.28 207.14 350.09C207.81 349.45 208.81 350.48 209.02 351.17C209.2 351.76 207.6 353.11 207.8 352.53" stroke="#00ADB5" stroke-opacity="0.500000" stroke-width="1.000000" stroke-linejoin="round" stroke-linecap="round"/>
	<path id="Vector 43" d="M222.95 350.86C223.28 350.75 225.4 350.06 224.99 351.19C224.78 351.77 223.98 352.08 223.46 352.27C223.21 352.36 222.57 352.35 222.98 351.99C223.34 351.67 223.85 351.53 224.33 351.56C226.18 351.71 223.59 353.84 223.06 354.13C222.03 354.7 220.63 355.3 219.55 354.6" stroke="#00ADB5" stroke-opacity="0.500000" stroke-width="1.000000" stroke-linejoin="round" stroke-linecap="round"/>
	<path id="Vector 44" d="M211.6 347.46C212.04 348.18 212.56 348.89 212.94 349.64C213.07 349.9 212.51 349.24 212.38 348.98C212.34 348.91 212.1 348.16 212.08 348.16C211.8 348.23 211.73 349.51 211.66 349.75C211.3 350.87 210.41 350.44 209.54 350.35C208.49 350.25 208.02 351.29 207.44 351.95C206.97 352.49 206.79 352.65 207.1 353.28C207.36 353.79 207.47 354.29 207.1 354.75C206.82 355.11 206.47 355.34 206.13 355.63C205.82 355.91 206.26 355.86 206.21 355.7C206.05 355.25 205.06 355.34 204.74 355.37C203.54 355.45 202.32 355.14 201.14 355.22C200.51 355.26 199.93 355.61 199.31 355.7C198.68 355.79 199.51 356.34 199.74 356.5C200.15 356.77 198.95 355.92 198.51 355.71C197.77 355.36 197.09 355.09 196.7 354.32C196.32 353.54 195.98 353.01 195.33 352.44C195.11 352.24 195.08 351.95 195.19 351.68C195.45 351.06 196.01 350.56 196.56 350.23" stroke="#00ADB5" stroke-opacity="0.500000" stroke-width="1.000000" stroke-linejoin="round" stroke-linecap="round"/>
	<path id="Vector 45" d="M211.48 349.77C210.04 348.76 208.85 348.32 207.15 348.1C206.55 348.02 205.92 347.6 205.53 347.15C205.18 346.74 205.38 346.85 204.97 347.4C204.41 348.15 204 347.47 203.29 347.67C202.2 347.98 201.27 348.99 200.16 349.18C199.86 349.23 199.93 348.72 199.55 348.94C198.92 349.31 198.43 349.66 197.68 349.77C197.23 349.84 196.38 350.14 196.45 350.69" stroke="#00ADB5" stroke-opacity="0.500000" stroke-width="1.000000" stroke-linejoin="round" stroke-linecap="round"/>
	<path id="Vector 46" d="M221.27 349.77C222.67 349.9 224.08 349.88 225.47 350.03C225.96 350.08 226.21 350.28 226.55 350.6C226.86 350.89 227.34 351.57 227.79 351.61C228.43 351.66 228.76 351.39 229.36 351.21C229.72 351.09 230.87 351.21 230.49 351.21" stroke="#00ADB5" stroke-opacity="0.500000" stroke-width="1.000000" stroke-linejoin="round" stroke-linecap="round"/>
	<path id="Vector 47" d="M220.24 351.32C218.74 352.31 217.94 353.81 216.34 354.7C216.02 354.88 215.05 355.23 215.12 355.81C215.17 356.23 218.42 354.91 218.91 354.66" stroke="#00ADB5" stroke-opacity="0.500000" stroke-width="1.000000" stroke-linejoin="round" stroke-linecap="round"/>
	<path id="Vector 48" d="M225.83 352.7C226.64 353.31 227.34 354.18 228.36 353.87C228.64 353.79 229.21 353.75 229.4 353.57" stroke="#00ADB5" stroke-opacity="0.500000" stroke-width="1.000000" stroke-linejoin="round" stroke-linecap="round"/>
	<path id="Vector 108" d="M427.13 327.59C422.92 328.4 419.86 329.61 417.2 333.04C415.51 335.21 415.88 338.63 416.98 340.94C418.81 344.73 423.29 346.87 427.34 347.06C432.05 347.28 438.6 345.89 439.57 340.27C440.09 337.26 437.21 334.41 435.86 331.94C434.77 329.93 433.11 327.22 430.81 326.37C429.86 326.02 427.68 326.14 426.99 327.08C426.68 327.5 426.29 327.94 426.07 328.41C425.89 328.79 426.08 327.44 426.04 327.05" stroke="#00ADB5" stroke-opacity="0.500000" stroke-width="1.000000" stroke-linejoin="round" stroke-linecap="round"/>
	<path id="Vector 109" d="M428.9 337.95C427.76 338.53 425.92 338.92 426.92 340.19C427.14 340.49 427.46 340.47 427.74 340.19C427.98 339.96 429.16 338.72 428.29 338.43C426.5 337.84 427.15 341.4 428.43 339.82C429.12 338.98 428.15 338.14 427.29 338.66C426.27 339.27 427.08 340.35 427.88 339.42C428.49 338.71 428.01 338.17 427.35 338.83C426.76 339.42 427.36 340.37 427.94 339.57C428.53 338.75 427.85 338.05 427.13 338.77C426.3 339.6 427.2 339.52 427.79 338.97C428.39 338.42 427.33 338.5 426.99 338.93C426.2 339.94 427.44 339.79 427.64 338.93C427.94 337.66 426.63 340.58 427.26 338.36" stroke="#00ADB5" stroke-opacity="0.500000" stroke-width="1.000000" stroke-linejoin="round" stroke-linecap="round"/>
	<path id="Vector 110" d="M424.27 333.72C425.48 335.32 426.72 336.83 427.73 338.43C428.01 338.87 427.79 339.32 427.94 339.31C428.52 339.28 429.1 339.17 429.72 339.17C431.11 339.17 432.21 338.49 433.56 338.49C435.19 338.49 437.59 338.07 434.89 336.72" stroke="#00ADB5" stroke-opacity="0.500000" stroke-width="1.000000" stroke-linejoin="round" stroke-linecap="round"/>
	<path id="Vector 111" d="M422.9 327.46C422.65 326.17 421.41 323.04 423.72 323.38C424.55 323.5 425.11 324.35 425.6 324.9C426.87 326.31 426.73 328.02 424.67 328.14C424.14 328.17 423.38 329.24 422.77 328.48C422.08 327.62 422.78 327.67 422.9 326.64C422.98 325.96 422.54 326.02 422.35 325.35C422.2 324.84 422.51 324.28 422.63 323.91" stroke="#00ADB5" stroke-opacity="0.500000" stroke-width="1.000000" stroke-linejoin="round" stroke-linecap="round"/>
	<path id="Vector 112" d="M423.72 325.96C423.71 326.28 423.21 329.22 424.27 328.74C424.63 328.57 424.94 328.34 425.08 327.97C425.22 327.61 425.07 327.4 424.92 327.05C424.51 326.14 423.33 324.74 423.69 326.77C423.92 328.06 425.35 327.76 425.46 326.53C425.55 325.6 424.37 324.34 423.62 325.41C423.08 326.17 424.03 327.84 424.58 326.67C424.86 326.07 424.19 324.57 423.48 325.31C422.75 326.06 423.85 327.66 424.57 327.02C425.28 326.38 424.8 324.43 424.02 325.17C423.32 325.85 424.38 327.21 424.92 326.17C425.52 325.01 424.19 324.14 423.78 325.35C423.41 326.44 424.56 327.6 424.83 326.12C425.03 325 422.96 324.4 422.96 325.75C422.96 326.98 424.07 326.85 424.07 325.73C424.07 324.56 422.89 324.82 423.38 325.81C423.87 326.79 424.53 325.04 423.98 324.49C423.33 323.84 422.47 324.84 423.24 325.47C423.76 325.89 424.47 324.13 423.59 323.8C422.84 323.52 423.26 325.06 423.52 324.71C423.92 324.17 423.3 323.81 423.73 323.91C424.11 324.01 425.02 324.21 425.28 324.54C425.48 324.8 426.31 326.26 426.31 326.64C426.31 327.8 424.54 328.42 423.52 328.13C422.8 327.92 422.58 328.44 422.84 328.27C423.46 327.85 423.58 326.77 423.58 327.18" stroke="#00ADB5" stroke-opacity="0.500000" stroke-width="1.000000" stroke-linejoin="round" stroke-linecap="round"/>
	<path id="Vector 113" d="M423.58 346.94C422.88 348.43 422.26 349.92 421.44 351.33C421.25 351.65 420.9 352.29 420.86 352.66C420.75 353.66 421.75 350.29 421.95 349.8" stroke="#00ADB5" stroke-opacity="0.500000" stroke-width="1.000000" stroke-linejoin="round" stroke-linecap="round"/>
	<path id="Vector 114" d="M437.35 344.08C439.07 346.26 440.97 347.81 442.32 350.2C442.45 350.44 442.68 350.62 442.86 350.81C443.48 351.42 441.73 349.5 441.16 348.85" stroke="#00ADB5" stroke-opacity="0.500000" stroke-width="1.000000" stroke-linejoin="round" stroke-linecap="round"/>
	<path id="Vector 159" d="M323.06 217.05C324.14 221.12 328.31 236.26 329.3 241.79C332.05 257.01 327.74 236.24 327.73 242.96" stroke="#00ADB5" stroke-opacity="0.500000" stroke-width="2.000000" stroke-linejoin="round" stroke-linecap="round"/>
	<path id="Vector 160" d="M315.75 223.63C315.38 217.43 313.99 208.83 322.68 209.72C326.77 210.14 331.27 212.56 333.82 215.81C337.76 220.82 335.68 228.6 331.42 232.59C329.16 234.72 326.96 235.78 324 236.58C318.98 237.94 322.94 230.97 323.75 229.06" stroke="#00ADB5" stroke-opacity="0.500000" stroke-width="2.000000" stroke-linejoin="round" stroke-linecap="round"/>
	<path id="Vector 161" d="M338.35 231.2C346.98 230.74 354.93 229.04 358.02 238.4C359.81 243.84 362 250.46 360.5 256.19C359.15 261.37 356.24 264.61 350.91 262.4C343.3 259.25 343.31 253.31 347.45 247.39C348.98 245.21 354.82 240.84 354.82 238.29" stroke="#00ADB5" stroke-opacity="0.500000" stroke-width="2.000000" stroke-linejoin="round" stroke-linecap="round"/>
	<path id="Vector 162" d="M353.91 221.1C353.61 223.37 353.61 239.44 349.26 239.59C348.44 239.62 347.76 240.05 347.05 240.4C344.31 241.76 345.97 240.54 347 239.12C349.31 235.9 354 237.09 356.35 232.83C358.9 228.19 360.07 225.92 356.42 222.33C353.86 219.82 354.98 215.55 352.96 221.57" stroke="#00ADB5" stroke-opacity="0.500000" stroke-width="2.000000" stroke-linejoin="round" stroke-linecap="round"/>
	<path id="Vector 163" d="M366.65 206.52C369.99 214.03 373.03 223.81 378.39 230.35C379.8 232.08 380.6 230.57 380.57 229.23C380.55 227.53 380.07 225.81 379.57 224.2" stroke="#00ADB5" stroke-opacity="0.500000" stroke-width="2.000000" stroke-linejoin="round" stroke-linecap="round"/>
	<path id="Vector 164" d="M356.96 226.05C362.26 223.97 375.25 221.86 377.47 215.25" stroke="#00ADB5" stroke-opacity="0.500000" stroke-width="2.000000" stroke-linejoin="round" stroke-linecap="round"/>
	<path id="Vector 165" d="M373.24 206.76C396.19 246.9 373.83 218.69 385.5 211.35C392.58 206.89 393.17 227.89 395.13 218.81" stroke="#00ADB5" stroke-opacity="0.500000" stroke-width="2.000000" stroke-linejoin="round" stroke-linecap="round"/>
	<path id="Vector 166" d="M393.74 205.38C394.57 207.87 397.36 224.3 403.18 220.55C405.79 218.87 408.82 215.67 409.32 212.52C409.86 209.15 407.75 200.57 402.98 201.5C400.8 201.92 397.16 202.02 395.74 204.09C394.37 206.09 393.5 210.77 395.15 205.86" stroke="#00ADB5" stroke-opacity="0.500000" stroke-width="2.000000" stroke-linejoin="round" stroke-linecap="round"/>
	<path id="Vector 167" d="M409.99 201.4C416.5 197.23 424.15 195.86 425.14 205.69C425.26 206.93 425.29 208.48 425.85 209.62C426.51 210.94 425.16 206.4 423.88 205.67" stroke="#00ADB5" stroke-opacity="0.500000" stroke-width="2.000000" stroke-linejoin="round" stroke-linecap="round"/>
	<path id="Vector 168" d="M409.52 205.17C409.81 210.31 409.07 217.28 411.48 222.11C411.56 222.27 412.13 223.53 411.84 222.84C411.27 221.47 411.04 220.55 409.96 219.07" stroke="#00ADB5" stroke-opacity="0.500000" stroke-width="2.000000" stroke-linejoin="round" stroke-linecap="round"/>
	<path id="Vector 148" d="M244.83 251.73C243.93 260.09 245.5 285.82 231.3 284.22C228.34 283.89 225.65 283.39 224.25 280.6C222.77 277.69 221.56 275.14 221.41 271.83C221.23 267.75 222.85 265.83 226.15 263.99C227.3 263.35 224.82 265.96 224.6 266.21C223.15 267.87 228.06 265.85 229.94 265.43" stroke="#00ADB5" stroke-opacity="0.500000" stroke-width="2.000000" stroke-linejoin="round" stroke-linecap="round"/>
	<path id="Vector 149" d="M263.06 255.75C255.87 256.42 245.74 257.78 244.58 266.76C243.95 271.63 251.2 272.23 254.34 273.89C259.74 276.74 263.84 286.04 257.78 290.13C253.57 292.98 250.38 291.46 246.28 291.75C242.12 292.04 245.02 290.5 247.49 290.08" stroke="#00ADB5" stroke-opacity="0.500000" stroke-width="2.000000" stroke-linejoin="round" stroke-linecap="round"/>
	<path id="Vector 143" d="M301.97 34.57C301.39 40.34 301.04 46.16 300.33 51.92C300.26 52.47 299.72 54.65 300.36 52.89C300.83 51.6 300.68 50.25 301.44 49.02C302.48 47.34 307.19 40.91 309.4 41.56C313.83 42.86 309.36 51.09 308.09 53.44C307.65 54.26 306.46 56.02 307.08 56.93C307.9 58.14 309.42 53.65 309.49 53.52" stroke="#00ADB5" stroke-opacity="0.500000" stroke-width="2.000000" stroke-linejoin="round" stroke-linecap="round"/>
	<path id="Vector 144" d="M319.48 38.36C318.95 40.93 314.54 53.65 318.79 55.76C319.99 56.35 322.65 55.23 323.47 54.26C324.33 53.25 323.88 51.71 323.79 50.54" stroke="#00ADB5" stroke-opacity="0.500000" stroke-width="2.000000" stroke-linejoin="round" stroke-linecap="round"/>
	<path id="Vector 145" d="M310.73 38.63C315.39 40.02 320.19 40.94 324.83 42.38C325.92 42.71 326.33 42.87 326.92 43.84C327.84 45.36 325.4 43.97 324.98 43.51" stroke="#00ADB5" stroke-opacity="0.500000" stroke-width="2.000000" stroke-linejoin="round" stroke-linecap="round"/>
	<path id="Vector 146" d="M331.83 47.65C330.76 50.88 329.75 54.15 328.53 57.34C328.28 57.97 328.25 58.2 328.12 57.72C327.99 57.25 327.87 56.98 328.07 56.49C329.17 53.87 331.74 50.12 334.15 48.66C336.76 47.08 335.34 52.38 334.99 53.45C334.59 54.65 333.53 57.95 334.74 54.76C335.46 52.86 337.11 48.14 339.88 48.83C341.57 49.24 341.18 51.52 340.88 52.72C340.33 54.94 339.79 57.14 339.24 59.37C338.43 62.62 338.87 60.86 339.45 58.49" stroke="#00ADB5" stroke-opacity="0.500000" stroke-width="2.000000" stroke-linejoin="round" stroke-linecap="round"/>
	<path id="Vector 147" d="M352.56 40.57C350.89 46.6 348.83 52.61 347.39 58.7C347.22 59.41 346.85 62.06 347.99 62.37C349.07 62.67 353.34 60.11 352.29 59.22" stroke="#00ADB5" stroke-opacity="0.500000" stroke-width="2.000000" stroke-linejoin="round" stroke-linecap="round"/>
	<path id="Vector 153" d="M62.42 286.46C58.46 293.98 54.51 301.52 50.53 309.04C49.4 311.19 47.17 317.75 46.89 315.34C46.51 312.07 48.51 307.5 49.36 304.44C50.55 300.12 52.99 291.49 59.05 291.52C63.63 291.54 68.78 298.26 69.49 302.44C69.99 305.4 71.44 302.06 73.42 301.17" stroke="#00ADB5" stroke-opacity="0.500000" stroke-width="2.000000" stroke-linejoin="round" stroke-linecap="round"/>
	<path id="Vector 154" d="M74.71 310.58C77.37 316.77 81.3 327.24 89.38 321.48C93.1 318.83 91.25 314.3 87.58 312.86C78.6 309.34 67.27 319.18 65.03 327.28C62.79 335.37 71.63 337.85 77.72 338.65C81.09 339.09 80.33 336.21 83.23 335.21" stroke="#00ADB5" stroke-opacity="0.500000" stroke-width="2.000000" stroke-linejoin="round" stroke-linecap="round"/>
	<path id="Vector 155" d="M97.09 331.99C90.11 329.08 80.86 326.48 76.92 335.4C75.03 339.7 83.52 340.21 86.03 340.09C90.84 339.86 101.55 328.73 97.94 331.92C94.77 334.71 91.57 338.02 90.27 342.15C89.43 344.81 90.39 350.71 93.49 346.64" stroke="#00ADB5" stroke-opacity="0.500000" stroke-width="2.000000" stroke-linejoin="round" stroke-linecap="round"/>
	<path id="Vector 156" d="M124.24 337.57C114.11 338.55 102.1 339.06 98.5 350.44C96.73 356.04 100.88 359.93 105.88 361.57C109.37 362.72 112.93 360.23 115.05 357.7" stroke="#00ADB5" stroke-opacity="0.500000" stroke-width="2.000000" stroke-linejoin="round" stroke-linecap="round"/>
	<path id="Vector 157" d="M133.44 339.12C132.89 339.79 107.93 367 119.82 367.21C123.12 367.27 126.5 365.35 128.77 363.2" stroke="#00ADB5" stroke-opacity="0.500000" stroke-width="2.000000" stroke-linejoin="round" stroke-linecap="round"/>
	<path id="Vector 158" d="M112.3 344.07C117.09 347.37 121.82 350.87 127.08 353.43C128.44 354.09 130.72 354.41 131.66 355.78C132.18 356.56 131.35 354.72 131.26 354.45" stroke="#00ADB5" stroke-opacity="0.500000" stroke-width="2.000000" stroke-linejoin="round" stroke-linecap="round"/>
	<path id="Vector 169" d="M58.84 126.25C62.87 133.13 75.64 153.19 70.45 147.14C67.14 143.28 64.62 138.15 62.52 133.57C60.31 128.77 58.24 120.21 66.65 120.64C73.86 121.01 76.74 128.38 78.01 134.42C78.57 137.08 78.71 139.15 79.9 141.57C81.13 144.05 81.19 134.5 81.66 132.03" stroke="#00ADB5" stroke-opacity="0.500000" stroke-width="2.000000" stroke-linejoin="round" stroke-linecap="round"/>
	<path id="Vector 170" d="M84.83 112.26C85.05 113.3 88.53 137.09 93.57 132.51C95.7 130.59 96.17 125.84 96.44 123.24C97.29 115.11 93.86 114.11 88.15 112.39C85.43 111.56 84.87 111.6 84.12 114.4C82.59 120.16 85.01 118.54 88.11 115.34" stroke="#00ADB5" stroke-opacity="0.500000" stroke-width="2.000000" stroke-linejoin="round" stroke-linecap="round"/>
	<path id="Vector 171" d="M106.77 105.55C103.97 110.28 100.39 115.84 102.36 121.62C103.18 124.02 105.08 123.39 106.42 122.04C108.52 119.9 109.62 116.4 109.5 113.47C109.27 107.86 105.76 103.05 102.07 99.06C101.56 98.51 96.9 94.67 97.81 97.97C99.45 103.89 104.01 109.59 107.19 114.74C112.43 123.23 114.04 119.93 116.39 111.96" stroke="#00ADB5" stroke-opacity="0.500000" stroke-width="2.000000" stroke-linejoin="round" stroke-linecap="round"/>
	<path id="Vector 172" d="M116.89 107.02C118.63 108.64 132.36 118.45 132.78 109.75C132.82 108.96 131.82 108.72 131.49 108.04C130.63 106.31 129.21 105.17 128.44 104.26" stroke="#00ADB5" stroke-opacity="0.500000" stroke-width="2.000000" stroke-linejoin="round" stroke-linecap="round"/>
	<path id="Vector 173" d="M118.03 112.92C112.6 105.78 105 98.35 112.79 91.3C116.07 88.32 122.87 90.67 122.7 95.64C122.61 97.96 122.12 103.68 118.8 104.28C117.04 104.6 116.23 103.45 117.86 101.85" stroke="#00ADB5" stroke-opacity="0.500000" stroke-width="2.000000" stroke-linejoin="round" stroke-linecap="round"/>
	<path id="Vector 174" d="M130.44 83.31C133.96 85.54 159 100.35 145.88 106.81C143.84 107.82 142.04 105.47 140.95 103.96C138.5 100.55 145.64 95.72 145.94 92.11" stroke="#00ADB5" stroke-opacity="0.500000" stroke-width="2.000000" stroke-linejoin="round" stroke-linecap="round"/>
	<path id="Vector 175" d="M151 71.41C148.95 73.08 137.22 83.46 146.45 85.46C151.54 86.57 156.36 81.49 160.24 78.96C166.48 74.87 167.79 82.73 166.08 87.17C165.03 89.88 156.26 98.77 158.66 91.71" stroke="#00ADB5" stroke-opacity="0.500000" stroke-width="2.000000" stroke-linejoin="round" stroke-linecap="round"/>
	<path id="Vector 150" d="M220.26 457.65C212.45 461.57 202.22 468.74 210.66 478.24C214.71 482.8 222.18 480.93 227.51 480.41C229.01 480.26 233.14 481.7 232.02 480.7C229.58 478.54 227.83 478.68 227.1 475.02" stroke="#00ADB5" stroke-opacity="0.500000" stroke-width="2.000000" stroke-linejoin="round" stroke-linecap="round"/>
	<path id="Vector 151" d="M243.43 455.01C243.43 460.77 243.38 464.89 249.28 467.12C251.83 468.09 253.43 468.98 254.11 471.84C254.87 475.06 252.62 479.74 249.95 481.55C246.66 483.78 242.52 484.56 238.81 483.04C235.63 481.74 239.14 480.2 240.8 478.71" stroke="#00ADB5" stroke-opacity="0.500000" stroke-width="2.000000" stroke-linejoin="round" stroke-linecap="round"/>
	<path id="Vector 152" d="M269.23 448.69C268.2 452.71 263.53 463.44 267.68 467.59C269.36 469.27 272.61 468.34 274.68 468.82C276.73 469.3 278.5 470.88 279.77 472.51C281.77 475.09 279.86 479 277.54 480.82C273.94 483.63 268.8 482.4 264.61 482.4C262.32 482.4 263.89 482.24 265.02 480.82" stroke="#00ADB5" stroke-opacity="0.500000" stroke-width="2.000000" stroke-linejoin="round" stroke-linecap="round"/>
	<path id="Vector 176" d="M260.16 398.75C264.21 397.2 271.74 394.74 275.66 391.96C279.8 389.03 275.47 388.19 273.26 388.89C269.53 390.07 267.27 393.99 266.01 397.43C262.67 406.5 273.27 416.76 282.19 415.72C290.42 414.76 291.57 410.72 292.81 404.54" stroke="#00ADB5" stroke-opacity="0.500000" stroke-width="2.000000" stroke-linejoin="round" stroke-linecap="round"/>
	<path id="Vector 177" d="M298.07 394.01C297.15 395.51 288.39 413.56 285.96 405.07" stroke="#00ADB5" stroke-opacity="0.500000" stroke-width="2.000000" stroke-linejoin="round" stroke-linecap="round"/>
	<path id="Vector 178" d="M281.75 394.53C285.45 399.48 294.38 417.15 303.34 416.65C304.64 416.58 302.92 411.58 302.81 410.86" stroke="#00ADB5" stroke-opacity="0.500000" stroke-width="2.000000" stroke-linejoin="round" stroke-linecap="round"/>
	<path id="Vector 179" d="M305.97 394.53C308.01 406.5 312.11 442.67 309.78 430.76C308.57 424.61 297.6 391.37 307.26 392.75C311.45 393.35 322.15 399.46 319.34 405.07C317.77 408.22 308 409.32 312.29 407.17" stroke="#00ADB5" stroke-opacity="0.500000" stroke-width="2.000000" stroke-linejoin="round" stroke-linecap="round"/>
	<path id="Vector 180" d="M325.99 402.96C327.29 409.73 328.54 416.5 329.67 423.29C329.87 424.46 329.61 423.5 329.26 422.86C327.11 418.82 324.16 411.62 324.26 407.09C324.35 402.79 330.26 399.86 333.36 402.96" stroke="#00ADB5" stroke-opacity="0.500000" stroke-width="2.000000" stroke-linejoin="round" stroke-linecap="round"/>
	<path id="Vector 181" d="M342.84 410.86C342.7 415.82 346.3 433.17 354.83 428.12C356.06 427.4 359.07 425.63 359.16 424.03C359.21 423.17 357.65 422.97 357.06 422.97C355.49 422.97 355.1 421.03 354.42 419.81" stroke="#00ADB5" stroke-opacity="0.500000" stroke-width="2.000000" stroke-linejoin="round" stroke-linecap="round"/>
	<path id="Vector 182" d="M340.2 412.44C344.82 407.67 350.01 401.09 354.1 409.6C355.3 412.09 354.88 415.09 353.9 417.59C352.3 421.62 346.6 423.21 348.1 417.18" stroke="#00ADB5" stroke-opacity="0.500000" stroke-width="2.000000" stroke-linejoin="round" stroke-linecap="round"/>
	<path id="Vector 183" d="M368.64 402.96C372.25 408.73 386.85 424.28 377.27 431.37C374.21 433.64 372.21 433.63 368.76 433.51C363.89 433.33 366.46 432.1 368.12 428.24" stroke="#00ADB5" stroke-opacity="0.500000" stroke-width="2.000000" stroke-linejoin="round" stroke-linecap="round"/>
	<path id="Vector 184" d="M390.76 400.85C389.67 402.17 375.59 415.79 384.15 417.24C387.3 417.77 390.2 415.86 393.1 417.79C398.33 421.28 397.09 426.01 392.28 428.97C389.88 430.45 387.2 431.23 384.68 432.45C383.25 433.14 384.77 431.14 384.97 430.35" stroke="#00ADB5" stroke-opacity="0.500000" stroke-width="2.000000" stroke-linejoin="round" stroke-linecap="round"/>
	<path id="Vector 185" d="M378.65 395.06C377.43 395.96 364.26 403.27 366.13 407.7C368.48 413.29 369.26 406.41 369.7 404.01" stroke="#00ADB5" stroke-opacity="0.500000" stroke-width="2.000000" stroke-linejoin="round" stroke-linecap="round"/>
	<path id="Vector 3" d="M54.97 222.79C57.31 217.26 56.35 212.44 56.35 206.71C56.35 205.59 56.15 202.2 57.32 201.59C59.17 200.63 60.9 199.99 63.08 199.99C64.52 199.99 65.98 200.03 67.43 199.99C68.88 199.95 70.28 199.36 71.72 199.18C74.38 198.86 77.15 199.31 79.79 199.31C81.88 199.31 84.04 199.58 86.05 199.58C86.41 199.58 87.86 199.75 88.1 199.96C88.81 200.59 88.61 201.61 89.17 202.16" stroke="#00ADB5" stroke-opacity="0.500000" stroke-width="1.000000" stroke-linejoin="round" stroke-linecap="round"/>
	<path id="Vector 4" d="M89.03 202.65C89.13 204.28 89.16 206.57 89.83 208.17C90.27 209.2 89.92 210.58 90.01 211.68C90.18 213.79 89.86 215.85 89.86 217.9C89.86 220.65 90 223.36 90 226.1C90 228.45 87.71 228.05 85.89 227.72C84.33 227.44 82.22 228.01 80.59 228.03C77.44 228.07 74.27 228.31 71.12 228.31C68.48 228.31 66.53 227.54 64.1 226.62C62.8 226.13 62.02 226.24 60.63 226.24C59.31 226.24 58.23 226.03 56.9 226.44C56.13 226.69 54.75 226.48 54.31 225.69C53.78 224.74 54.83 224.32 54.83 223.55C54.83 222.9 54.75 221.03 54.97 222.79" stroke="#00ADB5" stroke-opacity="0.500000" stroke-width="1.000000" stroke-linejoin="round" stroke-linecap="round"/>
	<path id="Vector 6" d="M71.79 207.07C72.35 207.48 73.51 207.27 74.48 207.27C75 207.27 75.54 206.87 76 206.67C76.93 206.25 76.38 207.03 76.15 207.48C75.91 207.97 76.19 208.89 76.64 209.2C77.38 209.71 78.11 209.27 78.83 208.91C79.13 208.76 79.05 208.69 79.14 208.9C79.26 209.17 79.24 209.58 79.24 209.88C79.24 210.56 79.2 211.71 78.83 212.31C78.34 213.09 77.85 213.6 77.07 214.18C76.3 214.76 75.29 215.75 74.26 215.75C72.26 215.75 70.14 215.32 69.13 213.37C68.71 212.55 67.93 211.87 67.93 210.93C67.93 210.14 67.67 209.2 67.93 208.44C68.25 207.53 69.04 206.67 68.76 206.67C68.9 206.71 70.14 205.96 70.69 206.24C70.69 206.24 71.24 206.51 71.79 207.07Z" stroke="#00ADB5" stroke-opacity="0.500000" stroke-width="1.000000" stroke-linejoin="round"/>
	<path id="Vector 7" d="M72.97 205.75C73.74 205.47 75.51 204.87 75.93 203.93C76.25 203.2 75.19 203.07 74.62 203.07C73.93 203.07 73.12 204.02 72.94 204.62C72.83 204.95 72.74 205.29 72.64 205.63C72.59 205.8 72.65 205.91 72.69 206.07C72.71 206.18 73.76 205.63 73.72 205.47" stroke="#00ADB5" stroke-opacity="0.500000" stroke-width="1.000000" stroke-linejoin="round" stroke-linecap="round"/>
	<path id="Vector 71" d="M86.9 221.27C90.27 221.19 93.03 223.9 93.03 227.27L93.03 227.82C93.03 231.14 90.35 233.82 87.03 233.82L56.5 233.82C53.21 233.82 50.55 231.16 50.55 227.88C50.55 224.65 53.13 222.01 56.36 221.94L86.9 221.27Z" stroke="#00ADB5" stroke-opacity="0.500000" stroke-width="1.000000"/>
	<path id="Vector 72" d="M63.05 221.77C63.51 222.48 63.91 223.34 64.43 223.99C64.7 224.32 64.65 224.26 65.17 224.07C66.02 223.75 66.99 223.98 67.89 223.98C68.67 223.98 69.58 223.57 70.34 223.77C71.22 224.01 72.26 223.56 73.13 223.54C74.18 223.51 75.18 223.61 76.22 223.61C76.84 223.61 77.46 223.24 78.04 223.24C78.37 223.24 79.33 223.51 79.36 222.89C79.37 222.59 79.51 222.3 79.51 221.99C79.51 221.58 79.26 221.76 78.85 221.55" stroke="#00ADB5" stroke-opacity="0.500000" stroke-width="1.000000" stroke-linejoin="round" stroke-linecap="round"/>
	<path id="Vector 67" d="M212.48 71C213.04 70.28 214.13 68.95 212.61 68.71C212.26 68.66 211.94 68.46 211.6 68.61C210.56 69.08 209.6 70.12 209.6 71.35C209.6 73.32 211.76 73.75 213.33 73.72C215.98 73.68 216.78 71.1 217.72 69.01C218.66 66.9 219.71 64.82 220.69 62.73C221.8 60.36 223.62 58.47 224.77 56.12C225.26 55.11 225.91 54.22 226.54 53.3C227.53 51.87 228.23 50.44 228.94 48.85C229.51 47.55 230.15 46.37 230.86 45.14C231.15 44.64 231.04 43.88 231.59 44.41C232.01 44.82 232.67 45.08 233.23 45.18C235.67 45.63 237.92 46.11 240.44 45.91C242.99 45.7 245.54 45.34 248.05 44.85C248.9 44.69 248.54 44.89 248.14 45.4C247.45 46.28 246.87 47.21 246.22 48.1C245.37 49.26 245.07 50.66 244.56 51.98C244.01 53.44 243.35 54.84 242.82 56.32C241.79 59.18 240.3 61.79 238.45 64.2C237.38 65.59 236.06 68.02 234.06 67.92C230.95 67.77 233.05 61.66 234.53 60.47C235.33 59.83 236.2 60.52 236.3 61.38C236.43 62.57 236.02 64.19 234.87 64.77C233.66 65.38 232.73 65.31 233.66 63.73C234.23 62.78 234.56 63.83 234.8 63.36" stroke="#00ADB5" stroke-opacity="0.500000" stroke-width="2.000000" stroke-linejoin="round" stroke-linecap="round"/>
	<path id="Vector 187" d="M446.3 283.76C446.87 283.04 447.95 281.71 446.43 281.48C446.09 281.42 445.77 281.22 445.43 281.37C444.39 281.84 443.43 282.88 443.43 284.12C443.43 286.09 445.59 286.51 447.16 286.49C449.8 286.44 450.61 283.86 451.54 281.77C452.49 279.66 453.54 277.59 454.52 275.49C455.63 273.12 457.45 271.23 458.6 268.88C459.09 267.87 459.74 266.98 460.37 266.06C461.36 264.64 462.06 263.2 462.76 261.62C463.34 260.32 463.98 259.13 464.69 257.9C464.98 257.41 464.87 256.64 465.42 257.18C465.83 257.58 466.5 257.84 467.05 257.95C469.5 258.4 471.75 258.87 474.27 258.67C476.82 258.47 479.37 258.1 481.88 257.62C482.73 257.45 482.37 257.65 481.96 258.17C481.28 259.04 480.7 259.97 480.05 260.86C479.19 262.02 478.89 263.42 478.39 264.75C477.84 266.21 477.18 267.6 476.65 269.08C475.62 271.94 474.13 274.56 472.28 276.96C471.21 278.35 469.89 280.78 467.88 280.69C464.78 280.53 466.88 274.43 468.36 273.23C469.16 272.59 470.03 273.28 470.13 274.14C470.26 275.33 469.85 276.95 468.7 277.53C467.49 278.15 466.56 278.07 467.49 276.5C468.06 275.54 468.39 276.59 468.62 276.12" stroke="#00ADB5" stroke-opacity="0.500000" stroke-width="2.000000" stroke-linejoin="round" stroke-linecap="round"/>
	<path id="Vector 55" d="M421.3 159.66C418.71 154.95 418.86 153.61 419.45 148.88C419.78 146.27 419.9 143.72 420.56 141.15C421.74 136.57 422.12 130.39 418.43 126.69C411.16 119.42 397.62 129.76 401.72 138.98C403.28 142.49 405.98 145.09 407.93 148.4C408.71 149.73 409.14 151.17 410.16 152.41C411.13 153.6 412.34 155.08 412.34 156.56C412.34 157.81 411.97 159.42 412.85 160.53C414.07 162.05 413.64 161.27 415.44 161.27C416.68 161.27 418.51 160.28 419.51 159.48C420.23 158.91 420.61 160.56 420.61 158.97C420.61 157.6 420.17 158.74 421.07 158.74" stroke="#00ADB5" stroke-opacity="0.500000" stroke-width="1.000000" stroke-linejoin="round" stroke-linecap="round"/>
	<path id="Vector 56" d="M415.56 164.02C418.01 163.29 424.81 161.66 423.24 163.68C421.34 166.12 420.53 164.9 418.2 165.42C417.01 165.68 415.85 169.36 417.17 169.44C419.05 169.55 420.3 167.01 422.22 167.01C423.97 167.01 423.84 169.31 422.79 170.13C421.41 171.2 419.82 170.05 418.89 171.72C417.42 174.37 421.44 173.94 422.58 173.32C423.73 172.69 424.82 171.71 425.67 171.15" stroke="#00ADB5" stroke-opacity="0.500000" stroke-width="1.000000" stroke-linejoin="round" stroke-linecap="round"/>
	<path id="Vector 57" d="M421.3 158.91C421.27 159.11 421.24 160.46 420.7 160.46C420.41 160.46 420.27 160.29 420.01 160.44C419.7 160.61 419.4 161.02 419.11 161.25C418.84 161.47 418.06 161.44 417.91 161.7C417.67 162.13 417.17 162.37 416.71 162.42C416.1 162.48 415.88 162.78 415.24 162.64C415.05 162.6 415.03 162.47 414.84 162.47C414.56 162.47 414.44 162.61 414.22 162.37C413.99 162.11 413.6 161.99 413.49 161.59C413.33 161.04 412.76 160.76 413.61 161.1" stroke="#00ADB5" stroke-opacity="0.500000" stroke-width="1.000000" stroke-linejoin="round" stroke-linecap="round"/>
	<path id="Vector 58" d="M410.22 136.17C411.24 136.17 412.09 136.24 412.44 137.33C412.68 138.07 412.69 138.8 412.69 139.57C412.69 140.32 412.23 140.92 412.23 141.63C412.23 142.56 412.97 142.4 413.6 142.69C414.2 142.96 414.63 143.18 414.95 143.78C415.27 144.37 415.03 145.52 414.99 146.17C414.95 146.72 414.69 147.9 415.07 148.37C415.28 148.63 416.42 149.02 415.67 148.46" stroke="#00ADB5" stroke-opacity="0.500000" stroke-width="1.000000" stroke-linejoin="round" stroke-linecap="round"/>
	<path id="Vector 59" d="M401.54 146.56C400.72 147.11 399.88 147.57 398.96 147.91C398.58 148.06 398.07 148.32 398.16 147.71" stroke="#00ADB5" stroke-opacity="0.500000" stroke-width="1.000000" stroke-linejoin="round" stroke-linecap="round"/>
	<path id="Vector 60" d="M398.56 138.64C397.1 138.99 395.65 139.39 394.21 139.77C393.96 139.84 394.52 139.23 394.54 139.21" stroke="#00ADB5" stroke-opacity="0.500000" stroke-width="1.000000" stroke-linejoin="round" stroke-linecap="round"/>
	<path id="Vector 61" d="M398.16 131.12C396.65 130.89 395.14 130.62 393.64 130.36C392.95 130.23 392.65 130.32 393.04 129.74" stroke="#00ADB5" stroke-opacity="0.500000" stroke-width="1.000000" stroke-linejoin="round" stroke-linecap="round"/>
	<path id="Vector 62" d="M406.31 123.13C405.12 122.92 404.08 122.72 403.01 122.18C402.5 121.93 402.01 121.63 401.49 121.42C400.86 121.18 400.85 121.25 401.54 120.83" stroke="#00ADB5" stroke-opacity="0.500000" stroke-width="1.000000" stroke-linejoin="round" stroke-linecap="round"/>
	<path id="Vector 63" d="M416.71 117.96C416.88 119.18 416.82 119.91 416.33 121.02C416.06 121.61 415.84 122.36 415.71 123.01C415.66 123.23 415.64 123.35 415.49 123.52C415.43 123.58 415.64 122.84 415.67 122.73" stroke="#00ADB5" stroke-opacity="0.500000" stroke-width="1.000000" stroke-linejoin="round" stroke-linecap="round"/>
	<path id="Vector 64" d="M425.49 122.84C425.11 124.11 424.57 125.33 424.24 126.6C424.08 127.25 424.18 127.29 424.46 126.64" stroke="#00ADB5" stroke-opacity="0.500000" stroke-width="1.000000" stroke-linejoin="round" stroke-linecap="round"/>
	<path id="Vector 65" d="M429.17 131.98C427.86 133.11 426.79 134.51 425.78 135.89C425.65 136.07 425.51 136.13 425.37 136.27C425.05 136.59 425.6 135.87 425.67 135.77" stroke="#00ADB5" stroke-opacity="0.500000" stroke-width="1.000000" stroke-linejoin="round" stroke-linecap="round"/>
	<path id="Vector 188" d="M136.73 247.18C138.64 255.79 140.79 264.41 142.05 273.14C142.76 278.02 141.21 270.98 141.02 269.98C140.6 267.83 140.12 265.92 140.12 263.72C140.12 259.29 140 254.8 139.67 250.36C139.44 247.26 135.63 238.01 140.45 245.72C145.37 253.59 148.84 262.29 152.18 270.88C152.64 272.06 153.28 273.18 153.78 274.32C154.06 274.94 148.89 269.89 146.9 268.81" stroke="#00ADB5" stroke-opacity="0.500000" stroke-width="2.000000" stroke-linejoin="round" stroke-linecap="round"/>
	<path id="Vector 189" d="M133.76 266.26C139.27 264.06 151.43 259.91 154.96 253.73C156.44 251.14 156.15 252.34 151.99 253.12" stroke="#00ADB5" stroke-opacity="0.500000" stroke-width="2.000000" stroke-linejoin="round" stroke-linecap="round"/>
	<path id="Vector 190" d="M150.3 237.43C154.55 245.85 157.63 254.82 158.8 264.17C158.91 265.03 159.11 265.98 159.72 266.59C159.83 266.71 157.68 262.67 157.08 261.6" stroke="#00ADB5" stroke-opacity="0.500000" stroke-width="2.000000" stroke-linejoin="round" stroke-linecap="round"/>
	<path id="Vector 191" d="M150.3 237.01C153.59 238.99 165.71 246.28 157.81 250.93C157.12 251.34 156.3 251.71 155.81 252.37C154.76 253.75 154.63 254.15 155.38 252.27" stroke="#00ADB5" stroke-opacity="0.500000" stroke-width="2.000000" stroke-linejoin="round" stroke-linecap="round"/>
	<path id="Vector 192" d="M161.32 232.77C162.72 242.29 165.13 252.75 165.13 262.45C165.13 264.59 164.78 260.62 164.29 259.48" stroke="#00ADB5" stroke-opacity="0.500000" stroke-width="2.000000" stroke-linejoin="round" stroke-linecap="round"/>
	<path id="Vector 193" d="M171.07 249.73C173.4 256.67 174.59 260.76 167.77 262.78C165.44 263.47 168.26 260.08 168.86 259.67C170.9 258.25 172.93 253.71 170.65 251.42C169.74 250.52 167.56 251.66 166.92 250.58C165.98 248.97 168.09 245.94 169.37 245.16C173.05 242.91 172.59 246.08 171.07 245.06" stroke="#00ADB5" stroke-opacity="0.500000" stroke-width="2.000000" stroke-linejoin="round" stroke-linecap="round"/>
	<path id="Vector 194" d="M298.42 120.98C299.83 128.37 305.61 149.97 302.25 143.23C301.88 142.51 301.58 141.89 301.55 141.07C301.44 138.03 301.21 134.84 300.16 131.95C299.28 129.53 299.46 127.03 299.46 124.46C299.46 123.94 298.59 119.89 298.67 119.86C299.56 119.57 303.21 124 303.87 124.77C307.21 128.63 310.58 133.08 312.97 137.61C314.19 139.95 314.56 140.78 311.63 141.15" stroke="#00ADB5" stroke-opacity="0.500000" stroke-width="2.000000" stroke-linejoin="round" stroke-linecap="round"/>
	<path id="Vector 195" d="M298.07 135.93C301.34 134.28 304.44 132.95 307.81 131.76" stroke="#00ADB5" stroke-opacity="0.500000" stroke-width="2.000000" stroke-linejoin="round" stroke-linecap="round"/>
	<path id="Vector 196" d="M307.46 121.33C310.8 126.33 313.98 131.66 317.87 136.28C318.43 136.94 319.59 138.14 319.59 136.59C319.59 134.48 318.42 132.3 317.89 130.29C317.04 127.09 316.25 123.86 315.54 120.63C314.84 117.51 315.33 118.68 316.5 121.02C318.44 124.9 320.48 128.43 323.19 131.88C325.01 134.19 325.19 132.9 325.19 130.87C325.19 127.18 323.39 124.14 322.07 120.83C320.65 117.28 320.74 112.44 319.13 109.22C318.5 107.96 318.41 111.94 318.24 113.33" stroke="#00ADB5" stroke-opacity="0.500000" stroke-width="2.000000" stroke-linejoin="round" stroke-linecap="round"/>
	<path id="Vector 197" d="M326.24 108.81C326.33 109.22 327.62 119.34 329.91 118.2C330.91 117.7 331.16 116.16 332.19 115.65C333.86 114.81 335.67 116.29 336.32 117.74C338.05 121.55 336.06 125.96 332.92 128.28C328.57 131.5 330.06 125.71 330.06 124.11" stroke="#00ADB5" stroke-opacity="0.500000" stroke-width="2.000000" stroke-linejoin="round" stroke-linecap="round"/>
	<path id="Vector 198" d="M328.32 108.12C327.7 109.83 326.56 117.76 326.22 114.68C326.01 112.78 326.38 111.34 326.59 109.51C327.07 105.17 330.39 108.66 329.02 106.38" stroke="#00ADB5" stroke-opacity="0.500000" stroke-width="2.000000" stroke-linejoin="round" stroke-linecap="round"/>
	<path id="Vector 199" d="M305.14 336.5C305.02 336.29 300 327.65 300.44 327.4C301.04 327.06 302.16 327.39 302.87 327.13C304.96 326.34 306.65 324.72 308.37 323.38C310.19 321.97 312.67 333.03 313.22 335.36C313.89 338.18 315.62 341.92 312.37 343.55C309.44 345.02 305.58 344.57 302.38 344.5C297.16 344.39 293.56 335.82 292.95 331.55C292.5 328.45 288.2 318.48 292.82 316.48C294.06 315.95 296.16 316.32 297.5 316.32C299.41 316.32 301.09 315.17 303.04 315.17C306.14 315.17 307.08 319.05 304.37 314.79" stroke="#00ADB5" stroke-opacity="0.500000" stroke-width="2.000000" stroke-linejoin="round" stroke-linecap="round"/>
	<path id="Vector 200" d="M313.9 317.84C314.44 319.81 316.18 330.76 320.75 327.95C321.62 327.42 322.26 326.13 322.57 325.2C323.42 322.74 323.59 320.68 321.7 318.79C320.29 317.38 317.56 314.49 315.5 314.41C310.41 314.21 314.9 319.92 314.28 318.98" stroke="#00ADB5" stroke-opacity="0.500000" stroke-width="2.000000" stroke-linejoin="round" stroke-linecap="round"/>
	<path id="Vector 201" d="M314.66 300.32C318.42 306.26 324.1 312.81 326.38 319.66C326.67 320.53 326.68 321.13 327.23 321.94C328.05 323.18 328.44 324.97 329.22 323.09C330.34 320.36 332.91 317.95 334.93 315.85C337.42 313.26 337.76 314.03 333.32 314.03" stroke="#00ADB5" stroke-opacity="0.500000" stroke-width="2.000000" stroke-linejoin="round" stroke-linecap="round"/>
	<path id="Vector 202" d="M340.94 298.41C340.47 299.48 333.29 313.68 340.22 310.45C341.6 309.81 343.01 308.81 342.82 307.17C342.65 305.59 341.33 304.35 340.64 302.98C340.26 302.21 338.71 298.48 339.25 299.55C340.84 302.74 342.98 308.4 345.34 310.77C348.1 313.53 349.75 310.63 347.04 309.08" stroke="#00ADB5" stroke-opacity="0.500000" stroke-width="2.000000" stroke-linejoin="round" stroke-linecap="round"/>
	<path id="Vector 203" d="M345.13 299.94C355.73 316.75 342.32 297.88 345.41 294.58C348.4 291.39 351.93 297.52 353.05 299.47C355 302.86 356.91 311.67 353.89 302.6" stroke="#00ADB5" stroke-opacity="0.500000" stroke-width="2.000000" stroke-linejoin="round" stroke-linecap="round"/>
	<path id="Vector 204" d="M358.46 285.46C358.28 286.1 352.6 302.1 356.85 300.61C358.66 299.98 360.48 298.55 361.45 296.91C362.56 295.01 363.08 292.42 362.27 290.33C361.72 288.9 361.13 287.38 360.37 286.05C358.56 282.9 363.42 292.65 364.88 295.98C367 300.85 372.12 317.95 360.05 314.56C354.78 313.08 359.74 304.89 359.22 304.89" stroke="#00ADB5" stroke-opacity="0.500000" stroke-width="2.000000" stroke-linejoin="round" stroke-linecap="round"/>
	<path id="Vector 205" d="M208.54 206.76C210.44 206.24 212.05 205.72 213.38 204.22C213.91 203.63 213.98 202.87 214.25 202.16C214.6 201.23 214.16 200.04 213.86 199.15C213.63 198.44 214.93 198.04 215.39 198.01C216.19 197.96 216.8 198.46 217.56 198.51C218.48 198.56 219.47 198.86 220.1 199.58C220.54 200.06 221.12 200.18 221.6 200.6C222.05 201 222.41 201.7 222.74 202.22C223.69 203.7 223.96 205.44 224.24 207.14C224.37 207.95 224.45 208.84 224.31 209.67C224.15 210.65 224.32 211.6 223.94 212.54C223.67 213.19 223.24 214.05 222.63 214.44C222 214.83 221.42 214.97 221.26 215.79C220.92 217.5 221.78 219.18 221.45 220.9C221.16 222.44 219.13 222.67 217.88 222.92C217.01 223.09 215.44 223.35 214.61 222.9C213.06 222.06 211.93 221 210.78 219.66C209.76 218.47 209.38 216.73 209.24 215.21C209.11 213.65 209.1 211.97 209.14 210.4C209.16 209.36 209.47 208.31 209.56 207.27C209.65 206.42 209.92 206.35 209.48 207.44" stroke="#00ADB5" stroke-opacity="0.500000" stroke-width="1.000000" stroke-linejoin="round" stroke-linecap="round"/>
	<path id="Vector 206" d="M219.51 199.02C220.15 197.37 220.86 195.73 221.35 194.02C221.57 193.26 221.62 192.45 221.9 191.7C222.21 190.84 222.37 189.86 222.51 188.95C222.61 188.3 222.66 187.15 223.25 186.74C223.69 186.44 223.93 185.76 224.4 185.4C225 184.94 225.85 184.51 226.27 183.89C226.69 183.29 227.13 182.04 226.78 181.34C226.59 180.95 226.61 180.53 226.42 180.14C226.17 179.65 225.95 179.24 225.76 178.7C225.59 178.23 225.08 177.29 225.68 176.96C227.16 176.14 227.26 177.43 227.72 178.6C227.95 179.21 227.99 179.96 228.21 180.59C228.36 181.02 228.62 180.71 228.83 180.96C229.13 181.33 229.15 181.8 229.38 182.2C229.72 182.81 229.32 184.04 229.14 184.63C228.82 185.73 228.48 186.72 228 187.78C226.76 190.49 224.73 192.78 223.34 195.41C222.81 196.41 222.39 197.42 222.13 198.53C221.98 199.16 221.55 199.76 221.55 200.43C221.55 201.03 221.4 201.34 221.73 200.38" stroke="#00ADB5" stroke-opacity="0.500000" stroke-width="1.000000" stroke-linejoin="round" stroke-linecap="round"/>
	<path id="Vector 207" d="M226.15 178.53C225.06 178.7 223.88 178.76 222.92 179.24C222.78 179.31 222.99 179.14 223.09 179.12C224.38 178.97 225.8 177.82 226.98 177.25C227.86 176.84 229.06 175.89 230.06 175.89C230.35 175.89 229.09 176.7 228.95 176.83" stroke="#00ADB5" stroke-opacity="0.500000" stroke-width="1.000000" stroke-linejoin="round" stroke-linecap="round"/>
	<path id="Vector 208" d="M225.04 180.4C226.25 179.7 228.34 178.94 229.23 177.76C229.31 177.65 229.38 177.5 229.5 177.42C229.94 177.17 229.16 177.45 229.04 177.51" stroke="#00ADB5" stroke-opacity="0.500000" stroke-width="1.000000" stroke-linejoin="round" stroke-linecap="round"/>
	<path id="Vector 209" d="M225.89 181.51C227.34 180.95 229.98 180.46 230.78 178.87C230.89 178.64 230.64 178.7 230.48 178.7" stroke="#00ADB5" stroke-opacity="0.500000" stroke-width="1.000000" stroke-linejoin="round" stroke-linecap="round"/>
	<path id="Vector 210" d="M227.42 181.34C227.33 183.29 227.35 185.27 226.24 186.94C225.69 187.75 225.32 188.29 225.13 189.25C224.92 190.27 224.7 191.12 224.23 192.05C223.77 192.97 223.24 193.72 222.78 194.6C222.55 195.06 221.97 195.5 222.08 196.05C222.14 196.32 222 196.57 221.91 196.83C221.65 197.6 221.15 198.27 220.69 198.94C220.37 199.39 220.37 200.2 220.79 199.36" stroke="#00ADB5" stroke-opacity="0.500000" stroke-width="1.000000" stroke-linejoin="round" stroke-linecap="round"/>
	<path id="Vector 211" d="M220.53 197.07C221.3 197.23 222.47 197.75 223.26 197.75C223.27 197.75 222.59 196.92 222.49 196.81" stroke="#00ADB5" stroke-opacity="0.500000" stroke-width="1.000000" stroke-linejoin="round" stroke-linecap="round"/>
	<path id="Vector 212" d="M221.04 193.58C222.13 194.04 223.22 194.5 224.29 194.98C224.55 195.1 224.53 195.11 224.45 195.03C224.26 194.84 224.1 194.64 223.94 194.43" stroke="#00ADB5" stroke-opacity="0.500000" stroke-width="1.000000" stroke-linejoin="round" stroke-linecap="round"/>
	<path id="Vector 213" d="M222.07 191.28C223.37 191.69 224.68 192.13 226 192.48C226.15 192.52 226.36 192.6 226.21 192.46C225.93 192.16 225.6 191.9 225.3 191.62" stroke="#00ADB5" stroke-opacity="0.500000" stroke-width="1.000000" stroke-linejoin="round" stroke-linecap="round"/>
	<path id="Vector 214" d="M222.75 188.39C224.23 189.12 225.72 189.9 227.24 190.55C227.49 190.66 227.58 190.74 227.53 190.54C227.46 190.27 227.35 190.01 227.25 189.75" stroke="#00ADB5" stroke-opacity="0.500000" stroke-width="1.000000" stroke-linejoin="round" stroke-linecap="round"/>
	<path id="Vector 215" d="M224.62 186.35C224.75 186.42 228.87 188.65 228.53 187.8" stroke="#00ADB5" stroke-opacity="0.500000" stroke-width="1.000000" stroke-linejoin="round" stroke-linecap="round"/>
	<path id="Vector 216" d="M225.47 184.99C226.71 185.28 227.96 185.55 229.21 185.76" stroke="#00ADB5" stroke-opacity="0.500000" stroke-width="1.000000" stroke-linejoin="round" stroke-linecap="round"/>
	<path id="Vector 217" d="M226.83 183.63C227.39 183.66 227.96 183.69 228.53 183.72" stroke="#00ADB5" stroke-opacity="0.500000" stroke-width="1.000000" stroke-linejoin="round" stroke-linecap="round"/>
	<path id="Vector 218" d="M215.6 209.14C215.01 209.38 211.37 210.28 211.35 211.29C211.34 211.68 211.35 212.07 211.4 212.46C211.54 213.67 212.39 214.31 213.42 214.89C214.73 215.62 216.15 215.64 217.58 215.23C218.94 214.83 219.82 213.32 219.28 212.03C219.16 211.76 219.56 211.71 219.3 211.4C219.05 211.1 218.89 211.27 218.49 211.35" stroke="#00ADB5" stroke-opacity="0.500000" stroke-width="1.000000" stroke-linejoin="round" stroke-linecap="round"/>
	<path id="Vector 219" d="M213.82 212.29C214.49 210.58 215.34 208.87 215.73 207.06C215.83 206.58 215.96 206.19 216.22 205.76C216.76 204.86 217.24 203.89 217.56 202.89C217.86 201.93 217.88 200.99 218.29 200.06C218.43 199.73 219.29 198.73 218.92 199.19" stroke="#00ADB5" stroke-opacity="0.500000" stroke-width="1.000000" stroke-linejoin="round" stroke-linecap="round"/>
	<path id="Vector 220" d="M220.53 200.04C220.22 202.01 219.74 203.9 219.41 205.84C219.22 206.92 218.92 207.83 218.92 208.96C218.92 209.77 219.21 210.45 219.02 211.27C218.81 212.21 218.62 211.74 218.24 211.1" stroke="#00ADB5" stroke-opacity="0.500000" stroke-width="1.000000" stroke-linejoin="round" stroke-linecap="round"/>
	<path id="Vector 221" d="M219.68 200.04C219.09 201.27 217.81 203.29 217.81 204.85C217.81 205.73 217.87 206.67 217.81 207.56C217.74 208.63 216.9 210.01 216.41 210.93C216.24 211.23 216.03 211.47 215.92 211.8C215.8 212.21 215.89 212.23 215.6 211.78" stroke="#00ADB5" stroke-opacity="0.500000" stroke-width="1.000000" stroke-linejoin="round" stroke-linecap="round"/>
	<path id="Vector 222" d="M213.56 210.5C215.01 211.54 217.57 213.65 219.34 211.82C219.62 211.54 220.02 210.93 220.18 210.57C220.39 210.07 219.71 210.49 219.26 210.59" stroke="#00ADB5" stroke-opacity="0.500000" stroke-width="1.000000" stroke-linejoin="round" stroke-linecap="round"/>
	<path id="Vector 223" d="M215.26 208.97C216.09 208.95 217.76 209.17 218.56 208.75C218.59 208.74 218.5 208.76 218.47 208.78C218.4 208.85 218.23 208.74 218.15 208.72" stroke="#00ADB5" stroke-opacity="0.500000" stroke-width="1.000000" stroke-linejoin="round" stroke-linecap="round"/>
	<path id="Vector 224" d="M216.2 205.83C216.8 205.99 219 206.92 219.09 205.91" stroke="#00ADB5" stroke-opacity="0.500000" stroke-width="1.000000" stroke-linejoin="round" stroke-linecap="round"/>
	<path id="Vector 225" d="M217.22 203.27C217.97 203.76 221.02 206.04 220.53 203.61" stroke="#00ADB5" stroke-opacity="0.500000" stroke-width="1.000000" stroke-linejoin="round" stroke-linecap="round"/>
	<path id="Vector 226" d="M218.07 202.08C218.83 202.28 219.6 202.48 220.36 202.68" stroke="#00ADB5" stroke-opacity="0.500000" stroke-width="1.000000" stroke-linejoin="round" stroke-linecap="round"/>
	<path id="Vector 227" d="M221.81 202.08C222.76 202.98 224.65 205.05 224.7 206.61C224.75 207.88 224.7 209.11 224.7 210.4C224.7 211.33 224.88 212.33 224.79 213.22C224.66 214.39 222.87 214.41 223.3 215.78C223.44 216.24 223.32 216.51 223.72 216.84C224.07 217.12 224.32 217.45 224.45 217.9C224.75 218.95 224.15 219.9 223.43 220.62C222.97 221.07 222.39 221.98 221.85 222.28C221.59 222.43 221.05 222.32 220.75 222.32C220.47 222.32 219.9 222.5 219.65 222.62C219.27 222.79 218.8 222.49 218.32 222.66" stroke="#00ADB5" stroke-opacity="0.500000" stroke-width="1.000000" stroke-linejoin="round" stroke-linecap="round"/>
	<path id="Vector 228" d="M208.54 207.02C208.89 208.15 209.14 209.1 209.72 210.08C209.95 210.48 209.92 210.84 209.82 211.31C209.69 211.85 209.3 213.13 209.61 213.69C210.09 214.55 210.08 215.46 210.08 216.41C210.08 217.33 211.51 217.73 211.98 218.2C212.68 218.9 212.37 219.79 213.52 220.09C213.78 220.16 214.17 220.16 214.36 220.32C214.51 220.45 214.69 220.75 214.88 220.79C215.29 220.86 215.83 220.78 216.2 220.94C216.5 221.08 216.73 221.27 217.01 221.43C217.31 221.6 217.73 221.41 218.07 221.58C219.21 222.15 218.7 221.6 217.9 220.96" stroke="#00ADB5" stroke-opacity="0.500000" stroke-width="1.000000" stroke-linejoin="round" stroke-linecap="round"/>
	<path id="Vector 229" d="M123.92 164.31C121.65 167.21 111.89 178.85 120.21 181.48C122.79 182.3 126.14 180.42 128.92 180.69C132.86 181.07 135.07 184.42 136.03 187.89C137.15 191.89 131 198.99 133.96 201.14C139.02 204.82 146.31 198.6 150.49 203.54C152.86 206.34 150.37 210.41 151.83 203.8" stroke="#00ADB5" stroke-opacity="0.500000" stroke-width="1.000000" stroke-linejoin="round" stroke-linecap="round"/>
	<path id="Vector 230" d="M238.04 119.02C240.23 121.92 245.44 128.45 247.4 132.18C249.07 135.35 246.96 135.23 245.18 133.97C243.04 132.46 243.34 129.25 243.95 127.03C246.01 119.54 259.35 112.64 260.86 124.17C261.39 128.21 257.77 135.02 252.84 133.41C246.33 131.29 246.75 121.36 251.67 117.67C256.7 113.89 264.95 118.23 264.95 124.4C264.95 131.25 256.82 133.37 253.66 127.33C250.79 121.84 255.87 116.09 261.32 115.27C263.33 114.97 268.51 117.28 264.9 118.49" stroke="#00ADB5" stroke-opacity="0.500000" stroke-width="1.000000" stroke-linejoin="round" stroke-linecap="round"/>
	<path id="Vector 231" d="M348.1 171.15C344.69 174.54 333.92 182.44 342.98 185.52C348.26 187.31 353.14 184.37 356.41 180.37C360.02 175.95 360.63 168.96 354.89 166.09C350.43 163.86 346.58 160.27 342.84 165.89" stroke="#00ADB5" stroke-opacity="0.500000" stroke-width="1.000000" stroke-linejoin="round" stroke-linecap="round"/>
	<path id="Vector 233" d="M464.49 217.5C457.98 221.38 448.09 226.06 458.17 229.73C459.72 230.29 460.73 229.92 462.09 228.97C467.13 225.43 467.43 224.01 467.12 218.55C466.92 214.94 461.64 215.76 459.23 216.97C455.66 218.75 453.18 222.32 451.74 225.92C449.79 230.78 459.83 230.48 461.21 224.64C462.08 220.97 457.89 215.77 455.01 220.25C451.2 226.18 457.02 231.49 460.69 225.28C464.2 219.33 455.99 216.88 453.78 223.82C450.88 232.94 468.13 223.03 461.86 219.9C458.12 218.03 451.8 229.9 458.7 226.95C467.07 223.36 457.7 218.07 457.7 226.45C457.7 233.25 468.95 223.38 461.62 220.72C459.95 220.11 458.29 225.46 459.49 226.66C461.56 228.73 465.17 223.35 464.99 221.42C464.2 213.11 456.06 234.24 465.75 224.55C467.96 222.34 467.87 218.34 464.2 220.69C462.03 222.07 460.66 227.96 464.76 226.6C468.69 225.29 468.69 218 464.46 219.69C461.88 220.72 460.95 224.37 458.17 223.82" stroke="#00ADB5" stroke-opacity="0.500000" stroke-width="1.000000" stroke-linejoin="round" stroke-linecap="round"/>
	<path id="Vector 234" d="M407.61 271.74C406.53 272.94 389.17 294.35 397.9 283.44C399.9 280.95 401.73 278.5 404.45 276.74C406.13 275.66 407.75 275 409.19 273.56C410.77 271.98 408.54 272.08 408.17 275.37C407.85 278.23 408.1 290.73 407.61 290.7C404.36 290.51 402.23 287.31 399.22 286.25C397.6 285.69 392.82 286.5 394.16 285.43C397.42 282.82 407.41 275.34 404.45 278.29C402.22 280.53 397.62 288.94 399.19 286.19C400.3 284.24 403.32 277.87 402.87 278.94C401.95 281.13 400.34 284.89 400.48 287.31C400.61 289.6 405.17 283.95 405.45 283.39C407.56 279.16 403.19 288.66 404.75 286.4C406.15 284.36 410.89 279.17 407.5 284.26C406.75 285.38 411.01 280.24 410.25 281.34C410.03 281.66 408.1 284.89 409.22 283.77C413.26 279.73 407.31 283.93 406.56 282.8" stroke="#00ADB5" stroke-opacity="0.500000" stroke-width="1.000000" stroke-linejoin="round" stroke-linecap="round"/>
	<path id="Vector 235" d="M372.33 359.16C374.17 356.54 384.71 344.96 376.05 344.45C374.58 344.36 371.56 343.89 370.34 344.89C367.43 347.26 368.69 353.68 372.62 354.39C377.83 355.34 382.71 348.22 377.07 345.47C371.17 342.6 357.25 354.13 363.26 358.87C375.09 368.21 385.79 341.07 370.49 344.97C356.6 348.52 368.83 362.82 375.14 353.6C381.89 343.74 361.07 343.65 364.75 354.69C366.57 360.13 372.52 357.5 373.59 353.11C375.16 346.66 368.75 349.32 368.64 353.78C368.53 358.56 375.89 349.92 371.48 350.3C368.3 350.58 367.98 354.95 365.48 354.95" stroke="#00ADB5" stroke-opacity="0.500000" stroke-width="1.000000" stroke-linejoin="round" stroke-linecap="round"/>
	<path id="Vector 236" d="M162.73 309.66C163.79 314.48 165.89 329.08 165.89 324.14C165.89 320.73 163.28 317.55 162.76 314.14C162.57 312.94 162.95 309.42 161.94 308.61C161.24 308.05 167.8 313.16 169.54 314.14C172.72 315.92 175 319.27 177.77 315.72C179.09 314.01 182.99 313.78 183.53 313.35C187.43 310.23 187.07 305.57 187.98 301.5C188.3 300.04 187.48 306.46 187.48 308.34C187.48 310.75 187.91 313.95 188.56 316.21C189.48 319.43 189.11 310.35 188.24 308.61C186.82 305.77 186.95 303.25 186.95 300.18C186.95 298.97 195.76 314.17 194.21 315.34C193.56 315.82 184.94 313.44 182.33 314.28C180.08 315.01 178.03 315.85 175.89 316.92C175.31 317.21 174.35 318.27 174.72 317.97C176.06 316.9 180.15 313.97 178.53 314.52C176.29 315.26 174.1 317.42 172.09 318.61C168.29 320.86 167.07 320.55 165.48 324.41C165.25 324.96 168.08 324.89 168.64 325.05C172.62 326.19 175.13 323.08 178.64 321.66C183.18 319.81 188.4 316.03 193.27 315.45C196.95 315.02 191.36 313.73 191.17 313.35" stroke="#00ADB5" stroke-opacity="0.500000" stroke-width="1.000000" stroke-linejoin="round" stroke-linecap="round"/>
	<path id="Vector 237" d="M363.9 106.9C373.83 103.72 389.9 100.06 398.78 92.8C400.39 91.48 402.88 90.22 402.32 87.68C400.2 78.14 395.59 75.9 386.49 76.91C381.45 77.47 376.6 82.13 371.92 84.02C367.1 85.97 362.27 88.54 357.88 91.34C353.42 94.17 356 95.57 356 100.47C356 103.16 357.61 106.9 360.48 106.9C361.79 106.9 365.54 105.85 361.83 105.85C358.91 105.85 354.39 106.29 351.79 104.91C349.8 103.86 353.73 101.79 354.66 101.67C357.99 101.22 350.84 104.48 350.12 104.71C348.64 105.18 355.47 100.01 351.67 101.23C347.56 102.55 353.67 99 354.95 98.36C356.4 97.64 355.14 98.78 355.48 98.18C356.02 97.23 359.19 93.71 356.33 96.57C355.37 97.53 358.49 94.94 359.54 94.09C361.53 92.48 359.01 94.92 358.52 95.32C356.26 97.16 355.73 95.67 353.9 96.49C353.13 96.83 351.26 97.96 351.26 96.63C351.26 94.35 359.33 93.31 360.8 93.24C369.82 92.83 376.14 88.85 384.44 86.77C388.44 85.77 392.81 84.33 396.55 82.56C399.33 81.24 404.9 77.12 407.85 77.97C409.01 78.3 391.12 88.7 396.26 85.31C400.51 82.5 405.39 80.53 399.01 85.81C393.91 90.03 402.89 85.11 403.61 85.4C404.89 85.91 395.68 91.18 402.7 87.94C405.38 86.71 407.61 86.65 407.61 83.73C407.61 79.77 408.7 75.08 403.66 76.91C397.86 79.03 393.2 83.54 387.19 85.31C383.05 86.53 379.02 88.07 374.96 89.52C370.25 91.21 361.73 93.09 358.37 97.19C356.58 99.38 353.4 107.9 359.98 104.21C366.02 100.83 366.99 93.98 370.22 88.59C371.83 85.91 367.42 94.25 366.77 97.31C366.02 100.82 369.33 104.87 373.12 104.21C377.27 103.49 381.64 97.75 383.13 94.26C390.25 77.49 377.33 93.76 380.99 97.42C384.88 101.31 390.81 91.01 391.58 88.47C392.52 85.41 393.07 81.64 394.19 78.73C395.64 74.95 386.37 79.2 385.5 79.63C380.67 82.02 377.31 85.2 374.03 89.41C372.84 90.93 368.07 98.1 371.33 99.73C375.71 101.92 381.07 95.13 381.19 91.6C381.61 79.66 371.77 85.78 365.83 90.46C362.16 93.35 365.35 99.13 366.01 98.48" stroke="#00ADB5" stroke-opacity="0.500000" stroke-width="1.000000" stroke-linejoin="round" stroke-linecap="round"/>
	<path id="Vector 238" d="M230.66 392.34C230.43 392.52 221.77 400 221.77 397.87C221.77 396.63 222.73 395.29 223.58 394.48C225.27 392.87 231.95 391.63 230.34 395.56C229.26 398.2 224.86 402.08 223.61 397.11C223.1 395.05 226.64 390.9 228.79 392.66C231.16 394.6 226.06 397.08 224.46 396.2C221.6 394.64 225.04 389.09 227.8 390.24C230.68 391.44 226.71 394.73 225.4 395.38C222.32 396.92 222.75 394.44 221.18 392.87" stroke="#00ADB5" stroke-opacity="0.500000" stroke-width="1.000000" stroke-linejoin="round" stroke-linecap="round"/>
	<path id="Vector 239" d="M87.94 391.82C90.98 396.82 96.76 402.01 90.87 406.56C89.35 407.74 80.39 412.43 80.92 406.97C81.58 400.32 91.49 400.17 92.1 394.21C92.71 388.32 78.63 390.54 75.42 386.55C73.41 384.05 71.79 378.51 72.26 375.31C72.45 374.07 75.6 371.66 75.28 373.91C74.69 378.03 61.4 388.58 69.28 392.05C74.56 394.37 75.92 388.49 79.81 387.08C87.82 384.16 75.83 405.77 75.83 400.24" stroke="#00ADB5" stroke-opacity="0.500000" stroke-width="1.000000" stroke-linejoin="round" stroke-linecap="round"/>
	<path id="Vector 240" d="M346 460.28C343.56 466.05 338.62 483.84 338.62 477.57C338.62 476.59 338.81 475.82 339.15 474.91C340.74 470.62 342.57 466.62 345.24 462.85C346.69 460.79 348.42 454.77 350.5 459.34C351.47 461.48 354.25 467.42 353.08 469.76C351.61 472.7 347.05 474.38 344.01 474.5C343.22 474.53 334.91 475.62 337.6 473.15C340.76 470.25 343.83 461.43 348.6 460.83C349.34 460.74 350.88 461.23 351.53 461.59C352.67 462.23 351.28 463.37 350.74 464.26C350.09 465.32 344.95 472.48 344.94 472.16C344.8 467.36 349.72 460.39 352.38 456.77C353.33 455.47 348.26 464.29 347.11 466.28C346.22 467.82 347.38 471.09 343.36 470.28" stroke="#00ADB5" stroke-opacity="0.500000" stroke-width="1.000000" stroke-linejoin="round" stroke-linecap="round"/>
	<path id="Vector 241" d="M182.74 36.86C180.39 46.05 178.3 54.81 177.44 64.19C177.36 65.12 176.77 65.73 177.36 66.47C178.23 67.57 180.56 60.58 181.45 58.72C184.29 52.79 187.48 50.45 187.48 43.18C187.48 42.13 187.48 36.09 187.48 40.08C187.48 43.46 188.12 46.81 187.89 50.2C187.71 52.77 185.25 59.68 187.07 57.87C189.87 55.06 187.63 41 183.24 40.63C177.24 40.13 174.35 53.12 173.67 57.16C172.87 61.87 176.19 63.83 179.84 60.18C184.83 55.19 185.92 44.93 181.63 39.08C175.74 31.05 171.87 45.54 171.39 49.09C170.29 57.11 174.77 59.68 180.08 53.98C182.03 51.88 185.96 48.25 185.14 44.99C184.04 40.66 177.64 44.87 176.36 46.75C174.55 49.42 174.57 56.06 177.5 57.95C180.24 59.72 182.9 52.39 182.59 50.55C181.29 42.76 166.6 55.13 173.9 59.56C180.26 63.42 184.48 46.17 176.65 48.3C174.48 48.89 169.3 54.77 173.79 54.77" stroke="#00ADB5" stroke-opacity="0.500000" stroke-width="1.000000" stroke-linejoin="round" stroke-linecap="round"/>
	<path id="Vector 242" d="M43.18 186.95C40.81 193.66 39.11 197.94 33.11 201.7C31.61 202.64 29.62 204.31 29.31 206.2C28.65 210.24 35.02 214.7 38.64 213.49C46.28 210.95 34.73 203.39 33.5 201.2C31.35 197.38 39.11 190.53 42.68 192.54C45.47 194.11 46.7 199.56 45.05 202.23C42.65 206.11 37.5 206.26 33.47 205.65C30.26 205.16 23.82 205.82 25.71 210.59C28.08 216.56 39.22 213.43 40.9 208.37C42.53 203.44 33.71 201.58 35.6 196.96C36.9 193.78 41 189.82 44.64 189.82C49 189.82 44.65 197.96 44 199.24C41.13 204.88 36.74 205.44 31.18 206.96C20.72 209.83 31.99 210.24 32.65 206.96" stroke="#00ADB5" stroke-opacity="0.500000" stroke-width="1.000000" stroke-linejoin="round" stroke-linecap="round"/>
	<path id="Vector 243" d="M30.54 259.1C29.42 263.31 26.12 270.5 26.44 275.08C26.6 277.22 27.18 270.84 27.44 268.7C27.92 264.63 28.48 260.03 30.66 256.47C31.04 255.84 39.98 266.99 40.78 268.82C42.93 273.71 40.24 272.78 36.86 274.37C34.98 275.26 22.17 279.78 22.17 278.59C22.17 277.34 24.59 274.79 25.16 273.73C26.94 270.42 28.85 266.25 29.6 262.55C31.21 254.65 30.01 270.91 30.01 272.15C30.01 272.9 30.31 277.3 28.55 277.3C26.35 277.3 30.04 273.17 30.77 271.1C31.56 268.9 34.68 262.44 33.9 260.13C32.81 256.85 32.27 266.89 32.15 270.34C32.07 272.68 30.94 276.58 32.76 272.79C33.35 271.59 35.22 266.64 35.19 267C34.93 270.05 33.7 273.19 33.7 276.25C33.7 279.38 35.35 269.29 38.21 268C38.91 267.67 37.91 273.62 37.91 274.49C37.91 276.08 39.43 268.4 39.43 269.99C39.43 270.43 38.8 273.1 38.32 272.27C36.35 268.87 34.87 266.76 30.83 265.54C28.99 264.98 23.15 265.36 25.07 265.36C26.33 265.36 28.32 260.97 29.72 262.12C31.58 263.64 29.03 268.51 28.43 270.16C27.46 272.87 26.85 269.06 29.25 269.34C31.75 269.64 29.2 278.87 30.6 276.77C31.25 275.8 33.21 271.01 33.14 271.57C31.87 282.4 32.13 268.6 34.23 271.74" stroke="#00ADB5" stroke-opacity="0.500000" stroke-width="1.000000" stroke-linejoin="round" stroke-linecap="round"/>
	<path id="Vector 244" d="M291.23 115.86C297.93 115.53 304.4 118 303.34 110.06C302.82 106.13 300.61 99.7 301.76 95.84C302.98 91.75 310.47 82.52 304.07 79.63C298.7 77.21 291.69 84.06 290.7 88.7C290.29 90.63 290.38 96.66 293.57 96.66C295.98 96.66 297.52 94.29 299.62 96.4C302.38 99.15 302.87 101.66 300.91 105.12C296.22 113.42 277.66 104.15 287.66 94.15C289.03 92.78 294.45 86.49 297.02 88.29C300.56 90.78 300.08 97.25 298.25 100.47C296.43 103.68 289.73 107.04 287.1 102.92C285.8 100.89 286.42 99.53 288.59 99.53" stroke="#00ADB5" stroke-opacity="0.500000" stroke-width="1.000000" stroke-linejoin="round" stroke-linecap="round"/>
	<path id="Vector 245" d="M347.33 165.14C347.95 164.89 367.22 155.38 366.32 160.61C365.84 163.41 366.16 166.03 366.55 168.83C366.71 169.9 369.32 178.25 366.7 178.25C361.83 178.25 357.07 175.8 352.19 176.73C350.17 177.11 346.14 178.5 345.99 175.26C345.87 172.84 343.86 161.94 348.65 163C352.6 163.88 352.77 160.75 349.97 167.72C349.57 168.7 346.95 176.14 347.39 175.79C351.77 172.35 354.17 165.73 358.19 161.72C360.69 159.21 356.4 169.27 355.88 170.52C353.21 176.94 360.02 165.09 360.79 163.91C364.16 158.76 361.6 167.98 361.08 169.5C359.53 174.06 364.31 165.54 366.23 164.41C372.59 160.65 366.58 173.63 365.24 170.93" stroke="#00ADB5" stroke-opacity="0.500000" stroke-width="1.000000" stroke-linejoin="round" stroke-linecap="round"/>
	<path id="Vector 247" d="M295.44 264.37C295.74 272.11 295.61 276.33 302.17 271.45C304.03 270.06 303.24 273.34 302.78 274.14C302.02 275.48 297.55 282.18 302.05 279.61C303.19 278.96 306.26 277.66 306.26 280.17C306.26 280.56 304.89 285.41 306.24 284.06C308.45 281.85 308.49 273.52 308.61 270.28C308.63 269.57 308.94 268.75 308.31 269.11C305.09 270.95 303.55 280.61 301.88 284.38C300.43 287.64 296.26 283.8 293.86 282.27C289.31 279.38 292.17 281.44 292.28 281.22" stroke="#00ADB5" stroke-opacity="0.500000" stroke-width="1.000000" stroke-linejoin="round" stroke-linecap="round"/>
	<path id="Vector 248" d="M259.1 333.36C259.08 333.6 258.46 348.72 258.57 341.37C258.61 339.13 258.54 336.89 258.57 334.65C258.66 328.28 259.8 331.23 262.55 333.86C263.82 335.06 268.45 337.66 267.7 340.09C267.48 340.8 260.04 342.1 258.87 342.55C257.99 342.88 252.78 346.16 252.78 346C252.78 342.08 254.16 337.85 254.63 333.94C255.61 325.67 261.33 347.81 261.71 342.22C261.79 340.91 261.74 333.07 261.74 335.03C261.74 336.48 262.79 344.24 262.79 339.15C262.79 338 262.79 336.85 262.79 335.7C262.79 335.16 263.08 337.75 263.29 337.25C264.01 335.43 262.79 331.76 262.79 336.23C262.79 341.24 261.38 337.63 258.31 337.63C255.69 337.63 254.18 347.26 255.53 345C256.72 343.03 254.38 335 255.42 339.12C255.96 341.28 257.25 338.89 258.05 338.1" stroke="#00ADB5" stroke-opacity="0.500000" stroke-width="1.000000" stroke-linejoin="round" stroke-linecap="round"/>
</svg>
